<svg width="148" height="24" viewBox="0 0 148 24" fill="none" xmlns="http://www.w3.org/2000/svg">
<path d="M5.825 21L7.45 13.975L2 9.25L9.2 8.625L12 2L14.8 8.625L22 9.25L16.55 13.975L18.175 21L12 17.275L5.825 21Z" fill="#F8BC46"/>
<path d="M36.825 21L38.45 13.975L33 9.25L40.2 8.625L43 2L45.8 8.625L53 9.25L47.55 13.975L49.175 21L43 17.275L36.825 21Z" fill="#F8BC46"/>
<path d="M67.825 21L69.45 13.975L64 9.25L71.2 8.625L74 2L76.8 8.625L84 9.25L78.55 13.975L80.175 21L74 17.275L67.825 21Z" fill="#F8BC46"/>
<path d="M98.825 21L100.45 13.975L95 9.25L102.2 8.625L105 2L107.8 8.625L115 9.25L109.55 13.975L111.175 21L105 17.275L98.825 21Z" fill="#F8BC46"/>
<path d="M129.825 21L131.45 13.975L126 9.25L133.2 8.625L136 2L138.8 8.625L146 9.25L140.55 13.975L142.175 21L136 17.275L129.825 21Z" fill="#F8BC46"/>
</svg>
