<svg width="81" height="70" viewBox="0 0 81 70" fill="none" xmlns="http://www.w3.org/2000/svg">
<rect width="80.9539" height="70" fill="#0B3727"/>
<path d="M13.9352 61.1147C13.9352 59.8216 13.9352 58.5285 13.9352 57.1268C16.2917 57.0397 18.5543 56.9571 20.8362 56.8734C20.8362 58.3509 20.8362 59.7333 20.8362 61.1147C18.5362 61.1147 16.2352 61.1147 13.9352 61.1147Z" fill="white"/>
<path d="M50.7029 61.1147C50.0467 60.8941 49.3826 60.6904 48.7378 60.4404C48.5952 60.385 48.4221 60.1689 48.4199 60.0241C48.3961 58.559 48.4052 57.0929 48.4052 55.4841C50.3273 55.8416 52.1939 56.1878 54.0957 56.5408C54.0957 58.111 54.0957 59.6134 54.0957 61.1147C52.9655 61.1147 51.8342 61.1147 50.7029 61.1147Z" fill="white"/>
<path d="M27.3978 61.1147C27.3763 59.7978 27.3503 58.481 27.3446 57.1641C27.3446 57.0589 27.477 56.8723 27.5675 56.8587C29.6073 56.5645 31.6504 56.2896 33.7207 56.0068C33.7207 57.2727 33.7207 58.5862 33.7207 59.9415C32.6833 60.2221 31.6357 60.4992 30.5915 60.7934C30.311 60.8726 30.0462 61.0061 29.7736 61.1147C28.9817 61.1147 28.1897 61.1147 27.3978 61.1147Z" fill="white"/>
<path d="M7.48671 61.1147C7.12242 60.2537 6.75927 59.3928 6.35313 58.4323C8.47434 58.0104 10.4915 57.6099 12.5776 57.1958C12.5776 58.567 12.5776 59.8408 12.5776 61.1147C10.8806 61.1147 9.18368 61.1147 7.48671 61.1147Z" fill="white"/>
<path d="M60.5453 61.1147C60.5453 60.084 60.5453 59.0546 60.5453 58.0171C62.6246 58.1959 64.6565 58.3701 66.7675 58.5511C66.7675 59.3973 66.7675 60.256 66.7675 61.1147C64.6938 61.1147 62.619 61.1147 60.5453 61.1147Z" fill="white"/>
<path d="M22.3069 61.1147C22.3069 59.7458 22.3069 58.3758 22.3069 56.965C23.5163 56.965 24.7076 56.965 25.9271 56.965C25.9271 58.3486 25.9271 59.7322 25.9271 61.1147C24.72 61.1147 23.514 61.1147 22.3069 61.1147Z" fill="white"/>
<path d="M68.1251 61.1147C68.1251 60.2752 68.1251 59.4358 68.1251 58.5342C70.2576 58.5342 72.2929 58.5342 74.3971 58.5342C74.0385 59.3996 73.6844 60.2571 73.3291 61.1147C71.5948 61.1147 69.8594 61.1147 68.1251 61.1147Z" fill="white"/>
<path d="M55.5675 61.1147C55.5675 59.7118 55.5675 58.309 55.5675 56.8575C56.7667 57.1585 57.9263 57.4492 59.1877 57.766C59.1877 58.8781 59.1877 59.9969 59.1877 61.1147C57.9806 61.1147 56.7746 61.1147 55.5675 61.1147Z" fill="white"/>
<path d="M52.5684 46.6033C52.5345 47.3262 52.7076 48.0491 52.4225 48.4078C52.1543 48.7438 51.4065 48.7132 50.8635 48.8116C47.3553 49.4429 43.9218 50.3446 40.5697 51.5619C40.3751 51.632 40.1115 51.6603 39.9271 51.5879C36.4234 50.2133 32.7897 49.3321 29.0869 48.7234C28.5348 48.6329 28.4137 48.4123 28.3685 47.9032C27.9352 43.0453 30.2589 38.1411 34.6642 35.857C42.0551 32.0252 50.9438 36.0312 52.3998 44.7367C52.5118 45.403 52.5231 46.0852 52.5684 46.6033Z" fill="white"/>
<path d="M76.9539 49.1114C76.5149 51.0381 76.1054 52.907 75.6551 54.7669C75.5103 55.3665 75.4209 56.1437 75.0125 56.4661C74.6335 56.7636 73.8597 56.5973 73.2635 56.5736C69.8764 56.4367 66.4756 56.4197 63.1077 56.0849C60.6301 55.8382 58.1786 55.2341 55.7429 54.6673C51.0853 53.5824 46.3982 52.8142 41.5969 52.9455C41.5076 52.9477 41.4182 52.933 41.2994 52.8142C42.2033 52.5054 43.1016 52.1739 44.0134 51.8899C47.8655 50.693 51.7968 49.8332 55.7983 49.3581C58.8427 48.9961 61.9074 48.8003 64.9642 48.5435C65.6034 48.4892 65.6679 48.4293 65.5118 47.7855C65.1735 46.3918 63.3329 45.0546 61.8848 45.1168C60.9062 45.1586 59.9253 45.1654 58.9456 45.1496C58.7341 45.1462 58.4048 45.0274 58.3471 44.8781C58.2827 44.714 58.406 44.3611 58.561 44.2513C58.8879 44.0205 59.2929 43.9029 59.6583 43.723C59.8088 43.6483 59.9943 43.5624 60.069 43.4289C60.3892 42.8609 60.8688 42.6912 61.4888 42.7263C61.6619 42.7365 61.9097 42.6347 62.0103 42.4989C62.4391 41.9242 62.9584 41.6821 63.6756 41.8461C63.8442 41.8846 64.0965 41.8382 64.2243 41.7296C65.0717 41.0056 66.0039 40.9275 67.0288 41.2511C67.297 41.3359 67.599 41.3088 67.8864 41.3325C67.9045 41.3337 67.9248 41.3212 67.9418 41.3246C69.0675 41.5973 70.3685 41.4219 71.1491 42.5815C71.1943 42.6483 71.286 42.6912 71.364 42.7241C71.4319 42.7523 71.5111 42.7501 71.5858 42.7625C72.2023 42.8632 72.4806 43.387 72.9015 43.749C73.2839 44.0782 73.8631 44.1699 74.327 44.4176C74.4457 44.481 74.5555 44.8045 74.4955 44.8973C74.4084 45.0342 74.1652 45.1405 73.9876 45.1405C72.9524 45.1417 71.9059 45.0048 70.8855 45.1134C69.4929 45.2616 68.1421 45.6349 67.2053 46.8251C67.1589 46.8839 67.1227 46.9506 67.0877 47.0174C66.4813 48.1453 66.6883 48.4689 67.926 48.5299C70.7837 48.6714 73.6391 48.8592 76.4957 49.03C76.5873 49.0368 76.6778 49.0617 76.9539 49.1114ZM67.5572 44.4844C66.9033 44.5138 66.3738 44.5364 65.8161 44.5613C66.1046 45.1021 66.358 45.5761 66.6352 46.0965C66.9327 45.5772 67.2155 45.0817 67.5572 44.4844ZM65.8116 46.3499C65.5084 44.869 64.704 44.3271 63.8216 44.8837C64.1463 45.0817 64.4936 45.2627 64.8047 45.4912C65.1305 45.7299 65.4235 46.015 65.8116 46.3499ZM69.1614 44.86C68.4962 44.5217 68.271 44.6167 67.8321 45.4234C68.2835 45.2322 68.7156 45.0489 69.1614 44.86Z" fill="white"/>
<path d="M20.8498 43.4979C21.5139 43.8395 21.9766 44.042 22.394 44.3147C22.5196 44.3961 22.6169 44.7242 22.5524 44.8441C22.4687 44.998 22.2096 45.1394 22.0241 45.1428C20.9889 45.1586 19.9515 45.1179 18.9164 45.1236C17.5973 45.1304 15.4749 46.4404 15.4116 48.0876C15.407 48.1973 15.4251 48.3082 15.4342 48.4383C23.3149 48.8795 31.087 49.7857 38.4915 52.6355C38.4903 52.7226 38.4881 52.8097 38.4869 52.8957C35.0636 53.4512 31.6561 54.1537 28.2124 54.5169C25.3366 54.8212 22.42 54.7895 19.5216 54.7986C15.3652 54.8121 11.2381 55.0158 7.18578 56.0272C6.71176 56.146 6.23887 56.2681 5.69358 56.4073C4.78287 54.0372 4.39257 51.5619 4 48.9248C7.42562 48.7415 10.78 48.5628 14.1739 48.3806C14.1818 47.5434 13.9884 46.7832 13.2824 46.2866C12.2009 45.5252 11.0017 45.0942 9.64751 45.1439C8.72549 45.1779 7.80008 45.1609 6.87693 45.1439C6.70723 45.1405 6.42327 45.0591 6.39725 44.9595C6.35426 44.7966 6.43685 44.5602 6.54319 44.4075C6.89277 43.9063 7.51046 43.9787 7.98901 43.7592C8.45398 43.5465 8.78432 43.0499 9.24137 42.8066C9.49705 42.6709 9.76404 42.6415 9.93826 42.3439C10.1668 41.9525 10.5729 41.8552 11.0164 41.7353C11.9712 41.4774 12.9509 41.4151 13.9046 41.2138C14.9353 40.9965 15.8709 40.9366 16.7261 41.6731C16.8596 41.7885 17.0949 41.8688 17.2646 41.8428C18.2172 41.6968 18.6086 41.8744 19.0996 42.7399C20.2649 42.6992 20.4663 42.8078 20.8498 43.4979ZM13.4408 44.5183C13.7836 45.0953 14.0709 45.5806 14.3877 46.1123C14.6717 45.5512 14.9228 45.0534 15.1932 44.5183C14.597 44.5183 14.0789 44.5183 13.4408 44.5183ZM17.1719 44.8373C16.1458 44.4075 15.2102 45.0885 15.2453 46.2583C15.8697 45.7978 16.5112 45.3249 17.1719 44.8373ZM13.1523 45.3906C12.7688 44.6337 12.641 44.5794 11.7608 44.8045C12.2394 45.0059 12.6681 45.1869 13.1523 45.3906Z" fill="white"/>
<path d="M35.2107 55.6267C37.4733 55.414 39.6895 55.2058 41.9307 54.9943C41.9307 56.4808 41.9307 57.8079 41.9307 59.0659C39.6613 59.239 37.4382 59.4087 35.2107 59.5784C35.2107 58.3475 35.2107 57.0261 35.2107 55.6267Z" fill="white"/>
<path d="M61.1743 22.8231C60.3835 22.1013 59.638 21.4192 58.8743 20.7223C60.0057 19.3206 61.1245 17.9336 62.3056 16.4697C63.2797 17.308 64.2379 18.1316 65.2595 19.0095C63.8725 20.3048 62.5432 21.5459 61.1743 22.8231Z" fill="white"/>
<path d="M21.9585 20.7279C21.1835 21.435 20.4357 22.1172 19.6449 22.839C18.3156 21.5708 17.0112 20.3263 15.6095 18.988C16.5938 18.1316 17.5316 17.3159 18.4978 16.4765C19.6755 17.9257 20.8034 19.3104 21.9585 20.7279Z" fill="white"/>
<path d="M21.0183 31.7051C20.6145 32.3612 20.2626 32.9314 19.8938 33.531C17.7375 32.3918 15.6016 31.2638 13.3967 30.0986C13.8673 29.3078 14.3334 28.5249 14.8606 27.638C16.9467 29.0148 18.9729 30.3531 21.0183 31.7051Z" fill="white"/>
<path d="M67.3999 30.0997C65.2176 31.2661 63.1168 32.3872 60.9661 33.5367C60.6041 32.9439 60.2466 32.3578 59.8495 31.7085C61.8689 30.3622 63.8759 29.0239 65.9417 27.6459C66.4451 28.4933 66.9112 29.2784 67.3999 30.0997Z" fill="white"/>
<path d="M46.9695 55.328C46.9695 56.9288 46.9695 58.4289 46.9695 60.006C45.7602 59.7967 44.5892 59.5942 43.3912 59.3872C43.3912 57.9787 43.3912 56.5951 43.3912 55.1131C44.5791 55.1843 45.7488 55.2545 46.9695 55.328Z" fill="white"/>
<path d="M6.10198 33.1633C6.54998 32.161 6.93802 31.2933 7.35321 30.3656C8.98343 31.0761 10.5277 31.7481 12.0844 32.4257C11.8072 33.1011 11.5504 33.7312 11.2766 34.3998C9.57737 33.9937 7.90303 33.5944 6.10198 33.1633Z" fill="white"/>
<path d="M74.7037 33.1577C72.9343 33.5887 71.2464 34.0005 69.537 34.4168C69.296 33.8285 69.0528 33.2844 68.8593 32.7221C68.8254 32.6226 68.9657 32.3782 69.0811 32.325C70.5122 31.67 71.9523 31.0376 73.4683 30.3645C73.8722 31.2763 74.2704 32.1768 74.7037 33.1577Z" fill="white"/>
<path d="M12.3321 22.2563C12.986 21.5085 13.6003 20.806 14.244 20.0695C15.4647 21.1895 16.6515 22.2778 17.871 23.3967C17.345 24.0178 16.8189 24.6389 16.268 25.2894C14.9556 24.278 13.6806 23.2949 12.3321 22.2563Z" fill="white"/>
<path d="M64.5886 25.3075C64.0433 24.6434 63.5354 24.0246 62.9923 23.3628C64.1745 22.2846 65.3398 21.2223 66.5684 20.1023C67.2031 20.8139 67.8332 21.5187 68.4769 22.2405C67.168 23.2734 65.9009 24.2735 64.5886 25.3075Z" fill="white"/>
<path d="M52.3863 18.9993C51.9858 19.936 51.6283 20.7732 51.2651 21.6239C49.9064 21.1318 48.6065 20.6612 47.2444 20.1679C47.4843 19.2414 47.7264 18.3103 47.9945 17.2752C49.4494 17.8465 50.8692 18.4031 52.3863 18.9993Z" fill="white"/>
<path d="M28.5246 19.0389C29.9761 18.4314 31.3552 17.8544 32.793 17.2514C33.0702 18.2345 33.3316 19.1645 33.6053 20.1317C32.2692 20.6182 30.9569 21.0956 29.5733 21.5979C29.2419 20.789 28.9047 19.9677 28.5246 19.0389Z" fill="white"/>
<path d="M41.7926 13.4423C40.8548 13.4423 40.012 13.4423 39.0979 13.4423C39.0979 11.9139 39.0979 10.4217 39.0979 8.88535C39.9678 8.88535 40.8638 8.88535 41.7926 8.88535C41.7926 10.39 41.7926 11.9014 41.7926 13.4423Z" fill="white"/>
<path d="M39.056 21.7518C39.9837 21.7518 40.8412 21.7518 41.7632 21.7518C41.6377 23.5472 41.5143 25.2962 41.391 27.0644C40.7451 27.0644 40.1307 27.0644 39.4531 27.0644C39.3196 25.2916 39.1895 23.5404 39.056 21.7518Z" fill="white"/>
<path d="M16.7194 26.5847C17.4626 25.7781 18.1369 25.0462 18.8598 24.2622C19.7931 25.1355 20.7061 25.9885 21.644 26.8653C21.0116 27.5418 20.3995 28.1957 19.74 28.9017C18.7478 28.1403 17.7703 27.3902 16.7194 26.5847Z" fill="white"/>
<path d="M64.1248 26.5304C63.1643 27.2828 62.2411 28.0181 61.2954 28.7252C61.2184 28.7829 60.9469 28.689 60.844 28.586C60.3145 28.0543 59.8111 27.4977 59.2748 26.9241C60.1742 26.0428 61.0691 25.1672 61.9968 24.2576C62.6778 24.9851 63.3804 25.734 64.1248 26.5304Z" fill="white"/>
<path d="M9.29794 26.6492C10.3897 27.3439 11.3841 27.9864 12.3909 28.6098C12.6907 28.7953 12.7801 28.965 12.5606 29.2807C12.357 29.5714 12.2133 29.904 12.0278 30.2083C11.5504 30.9901 11.5481 30.9867 10.6928 30.5771C9.77875 30.1405 8.86351 29.7049 7.8657 29.2297C8.3465 28.3632 8.80582 27.535 9.29794 26.6492Z" fill="white"/>
<path d="M69.236 30.998C68.8752 30.3554 68.5267 29.7603 68.2122 29.1472C68.1636 29.0521 68.2246 28.8089 68.3118 28.7489C69.3492 28.0419 70.4013 27.3563 71.5077 26.6277C71.9806 27.4841 72.4399 28.3145 72.94 29.2207C71.7159 29.8079 70.5235 30.3803 69.236 30.998Z" fill="white"/>
<path d="M13.4442 36.4192C13.2428 37.3424 13.0629 38.1626 12.865 39.0699C11.7201 38.8493 10.591 38.631 9.37826 38.3979C9.5423 37.408 9.70295 36.4419 9.87378 35.4112C11.1013 35.7574 12.2665 36.0866 13.4442 36.4192Z" fill="white"/>
<path d="M70.9059 35.4474C71.0971 36.4441 71.2724 37.3582 71.4636 38.3515C70.2599 38.6049 69.1161 38.8459 67.8977 39.1027C67.7144 38.2078 67.5413 37.3571 67.3569 36.4532C68.5278 36.1206 69.6716 35.797 70.9059 35.4474Z" fill="white"/>
<path d="M8.24808 37.925C7.09301 37.6874 6.01034 37.4646 4.84283 37.2247C5.11661 36.2484 5.38133 35.306 5.6585 34.3173C6.7604 34.6329 7.77972 34.9248 8.83523 35.228C8.63499 36.1432 8.44606 37.0143 8.24808 37.925Z" fill="white"/>
<path d="M72.0044 35.2744C73.0486 34.9576 74.0498 34.6533 75.1347 34.3241C75.4187 35.2845 75.6936 36.2122 75.9922 37.2213C74.8326 37.4657 73.7375 37.6954 72.5802 37.9386C72.389 37.0539 72.2012 36.1851 72.0044 35.2744Z" fill="white"/>
<path d="M50.2764 10.1298C51.4292 10.5257 52.4722 10.8844 53.5425 11.2521C53.1001 12.2352 52.6793 13.1708 52.2618 14.1018C51.4801 13.7523 50.7198 13.4287 49.98 13.0655C49.8453 12.9999 49.6881 12.7533 49.713 12.6232C49.8657 11.8154 50.0693 11.0167 50.2764 10.1298Z" fill="white"/>
<path d="M31.2522 12.8766C30.3392 13.3009 29.4896 13.6957 28.5936 14.112C28.1773 13.1696 27.7644 12.2363 27.3265 11.2453C28.4194 10.8708 29.4421 10.519 30.5655 10.1343C30.7974 11.0631 31.018 11.9444 31.2522 12.8766Z" fill="white"/>
<path d="M36.0852 12.8042C36.2243 13.862 36.3589 14.8802 36.5004 15.9594C35.5806 16.1133 34.7185 16.257 33.7931 16.412C33.5771 15.361 33.3666 14.3394 33.1505 13.2884C34.1574 13.1232 35.0964 12.9671 36.0852 12.8042Z" fill="white"/>
<path d="M47.6721 13.2579C47.4764 14.3383 47.292 15.3508 47.0962 16.4312C46.1912 16.2819 45.311 16.1371 44.3777 15.9843C44.5055 14.9243 44.6277 13.905 44.7567 12.8302C45.716 12.9705 46.655 13.1085 47.6721 13.2579Z" fill="white"/>
<path d="M14.192 25.2939C13.7632 25.9965 13.3741 26.6334 12.9442 27.3393C11.9701 26.7669 10.996 26.1956 9.96315 25.5892C10.5141 24.8086 11.0266 24.0811 11.5741 23.3051C12.4781 23.9929 13.3345 24.6423 14.192 25.2939Z" fill="white"/>
<path d="M23.3432 13.19C24.2098 12.7239 24.9972 12.2996 25.8355 11.8471C26.3152 12.8155 26.7699 13.7319 27.2326 14.6664C26.5007 15.1302 25.8072 15.5691 25.0786 16.0319C24.5005 15.0861 23.9451 14.1776 23.3432 13.19Z" fill="white"/>
<path d="M57.5507 13.1787C56.9274 14.1674 56.3504 15.0838 55.7553 16.0285C55.0426 15.5793 54.3627 15.1517 53.6341 14.6924C54.0979 13.7704 54.564 12.8415 55.0516 11.8697C55.9035 12.3166 56.7124 12.7409 57.5507 13.1787Z" fill="white"/>
<path d="M14.9341 35.4803C14.0777 35.2144 13.2406 34.9542 12.3366 34.6725C12.7145 33.6147 13.0822 32.5875 13.4668 31.5105C14.278 31.9234 15.0145 32.2866 15.734 32.6803C15.8313 32.7334 15.9252 32.9653 15.8878 33.066C15.5903 33.8704 15.2622 34.6623 14.9341 35.4803Z" fill="white"/>
<path d="M69.2394 23.2836C69.7723 24.0529 70.2814 24.7871 70.8357 25.5881C69.8187 26.1978 68.8627 26.7714 67.8728 27.3653C67.5142 26.7454 67.1589 26.156 66.8388 25.5473C66.7879 25.45 66.849 25.2091 66.9395 25.1333C67.6737 24.5201 68.4271 23.9318 69.2394 23.2836Z" fill="white"/>
<path d="M72.8596 39.2758C74.0317 39.0292 75.1257 38.7995 76.2943 38.554C76.4482 39.4874 76.593 40.3664 76.7615 41.3846C75.6348 41.3846 74.5872 41.3914 73.5407 41.3733C73.44 41.371 73.2782 41.2262 73.2533 41.1221C73.1051 40.5248 72.992 39.9195 72.8596 39.2758Z" fill="white"/>
<path d="M7.91774 39.234C7.77632 39.9851 7.64622 40.6764 7.52178 41.3359C6.38594 41.3359 5.30214 41.3359 4.12897 41.3359C4.25455 40.3924 4.3722 39.5157 4.49778 38.5778C5.67774 38.8041 6.78869 39.0167 7.91774 39.234Z" fill="white"/>
<path d="M67.3264 31.5127C67.7257 32.5954 68.0945 33.5944 68.4826 34.6476C67.6013 34.9146 66.7664 35.1691 65.8772 35.4395C65.5615 34.5729 65.2436 33.6984 64.9122 32.7855C65.6984 32.3703 66.4711 31.963 67.3264 31.5127Z" fill="white"/>
<path d="M48.0307 12.2544C47.0691 12.0677 46.1403 11.8867 45.1662 11.6967C45.2929 10.8425 45.4117 10.0348 45.5429 9.14668C46.6211 9.33561 47.6574 9.51775 48.7457 9.70781C48.4945 10.6015 48.2694 11.4059 48.0307 12.2544Z" fill="white"/>
<path d="M35.7582 11.7046C34.7593 11.8811 33.8395 12.0428 32.8485 12.2171C32.6211 11.4206 32.3914 10.6196 32.1425 9.74741C33.2003 9.54038 34.2004 9.34353 35.2752 9.1331C35.4381 9.99856 35.5919 10.8165 35.7582 11.7046Z" fill="white"/>
<path d="M54.5912 19.6407C55.391 20.1872 56.1139 20.6815 56.8516 21.185C56.313 22.0188 55.8085 22.7994 55.2881 23.606C54.5505 23.1512 53.8513 22.719 53.0911 22.2507C53.5775 21.4056 54.0572 20.5718 54.5912 19.6407Z" fill="white"/>
<path d="M24.0344 21.1759C24.763 20.6691 25.4384 20.1985 26.1805 19.6815C26.7145 20.5345 27.2383 21.3705 27.7881 22.2495C27.055 22.684 26.3491 23.1014 25.5651 23.5664C25.0764 22.8016 24.5854 22.0357 24.0344 21.1759Z" fill="white"/>
<path d="M25.3988 34.5503C25.0798 35.0243 24.8184 35.4112 24.5243 35.8479C23.3375 35.2755 22.1598 34.7076 20.9414 34.1204C21.3012 33.4903 21.6428 32.8907 22.006 32.2537C23.152 33.0298 24.2562 33.7776 25.3988 34.5503Z" fill="white"/>
<path d="M58.82 32.282C59.2171 32.9303 59.5678 33.5016 59.9412 34.1114C58.7974 34.6589 57.6887 35.1986 56.5687 35.7144C56.4624 35.7631 56.2248 35.7122 56.1569 35.6239C55.9182 35.3151 55.727 34.97 55.4702 34.5628C56.5857 33.8014 57.6684 33.066 58.82 32.282Z" fill="white"/>
<path d="M38.2313 27.1583C37.5118 27.276 36.8658 27.3812 36.1519 27.4977C35.8657 26.5531 35.5783 25.6062 35.2638 24.5699C36.1123 24.3685 36.919 24.1762 37.772 23.9737C37.9292 25.0665 38.0763 26.0824 38.2313 27.1583Z" fill="white"/>
<path d="M58.2623 21.8479C58.9965 22.495 59.655 23.0754 60.3903 23.7236C59.7341 24.3142 59.1006 24.8844 58.4218 25.4953C57.8901 25.0258 57.2905 24.4941 56.6276 23.9081C57.1661 23.2293 57.6944 22.5641 58.2623 21.8479Z" fill="white"/>
<path d="M22.6112 21.8592C23.1712 22.5618 23.6837 23.2044 24.22 23.8775C23.5785 24.4533 22.9665 25.002 22.2911 25.6084C21.705 24.9873 21.1213 24.3685 20.4957 23.7044C21.2276 23.0664 21.9019 22.4781 22.6112 21.8592Z" fill="white"/>
<path d="M19.3361 34.711C18.999 35.5085 18.6867 36.2473 18.3665 37.003C17.578 36.7156 16.7918 36.4283 15.9387 36.1172C16.26 35.2438 16.5734 34.3874 16.9105 33.471C17.7647 33.9077 18.5589 34.3127 19.3361 34.711Z" fill="white"/>
<path d="M43.2962 23.0878C43.3358 22.2914 43.3731 21.5289 43.4149 20.6759C44.4682 20.8682 45.4513 21.047 46.4571 21.2314C46.293 22.0651 46.1448 22.8152 45.9853 23.6297C45.0949 23.4499 44.2057 23.2711 43.2962 23.0878Z" fill="white"/>
<path d="M41.8368 16.9901C40.9057 16.9901 40.0086 16.9901 39.0707 16.9901C39.0707 16.1472 39.0707 15.3304 39.0707 14.5114C39.9905 14.5114 40.9012 14.5114 41.8368 14.5114C41.8368 15.3497 41.8368 16.1348 41.8368 16.9901Z" fill="white"/>
<path d="M62.4199 36.9759C62.1065 36.1998 61.8192 35.4904 61.516 34.7415C62.2977 34.3252 63.05 33.9247 63.8917 33.4767C64.2481 34.3501 64.592 35.1918 64.9518 36.0731C64.0874 36.3819 63.2808 36.6693 62.4199 36.9759Z" fill="white"/>
<path d="M45.5034 24.7305C45.2613 25.7068 45.0384 26.6062 44.8087 27.5305C44.0824 27.4027 43.407 27.285 42.6796 27.1572C42.8131 26.1684 42.9421 25.217 43.0767 24.2169C43.9354 24.399 44.6979 24.5597 45.5034 24.7305Z" fill="white"/>
<path d="M50.8771 22.8718C50.5117 23.6388 50.1904 24.3153 49.8589 25.0122C49.0387 24.7124 48.2366 24.4183 47.3734 24.1026C47.6065 23.3243 47.8293 22.581 48.068 21.7812C49.0421 22.159 49.9449 22.5097 50.8771 22.8718Z" fill="white"/>
<path d="M32.8032 21.7699C33.0306 22.5618 33.2512 23.3254 33.4775 24.1117C32.6482 24.4013 31.8575 24.6785 30.9954 24.9794C30.6764 24.295 30.3483 23.5924 30.0021 22.8503C30.9558 22.4815 31.8427 22.1398 32.8032 21.7699Z" fill="white"/>
<path d="M50.6938 26.5146C51.4235 26.9298 52.0582 27.2907 52.7449 27.681C52.1147 28.5295 51.5072 29.3474 50.8658 30.2117C50.2945 29.8441 49.765 29.5047 49.196 29.1392C49.6949 28.2647 50.1745 27.423 50.6938 26.5146Z" fill="white"/>
<path d="M37.3884 20.582C37.4654 21.3581 37.5333 22.047 37.6045 22.7733C36.6655 22.9906 35.7627 23.1999 34.8328 23.4148C34.6688 22.6523 34.5172 21.943 34.3486 21.159C35.3702 20.9644 36.3408 20.78 37.3884 20.582Z" fill="white"/>
<path d="M31.6821 29.1098C31.0825 29.4809 30.5451 29.8124 29.9614 30.1744C29.3595 29.3519 28.7769 28.5544 28.132 27.6708C28.8221 27.2726 29.4772 26.8947 30.1808 26.4897C30.6786 27.3586 31.1606 28.2003 31.6821 29.1098Z" fill="white"/>
<path d="M38.9055 18.3182C39.9181 18.3182 40.9227 18.3182 41.9284 18.3182C41.9284 19.0106 41.9284 19.6724 41.9284 20.3455C40.9046 20.3455 39.935 20.3455 38.9055 20.3455C38.9055 19.6724 38.9055 19.0276 38.9055 18.3182Z" fill="white"/>
<path d="M60.3722 35.4576C60.689 36.0222 60.9718 36.5256 61.2829 37.0811C60.06 37.5053 58.8789 37.9148 57.6537 38.3402C57.4421 37.9375 57.2283 37.5313 56.976 37.0516C58.1107 36.5188 59.2069 36.0041 60.3722 35.4576Z" fill="white"/>
<path d="M23.8183 37.0381C23.5864 37.5291 23.4122 37.9001 23.2052 38.3391C22.0037 37.9182 20.8102 37.5008 19.5759 37.0686C19.8689 36.5211 20.1416 36.0131 20.4436 35.4474C21.5738 35.9803 22.6825 36.503 23.8183 37.0381Z" fill="white"/>
<path d="M43.4285 17.0613C44.4218 17.2084 45.328 17.3419 46.2862 17.4833C46.1256 18.2345 45.974 18.9416 45.8145 19.6871C45.0112 19.5321 44.2408 19.3839 43.4285 19.2278C43.4285 18.54 43.4285 17.8533 43.4285 17.0613Z" fill="white"/>
<path d="M49.1552 26.0677C48.7366 26.9207 48.3407 27.7274 47.9323 28.56C47.3451 28.3247 46.793 28.1041 46.1742 27.8563C46.4412 26.9626 46.7014 26.0904 46.9775 25.1638C47.7456 25.4828 48.4346 25.7691 49.1552 26.0677Z" fill="white"/>
<path d="M34.7547 27.8495C34.1371 28.0837 33.5793 28.2953 32.9526 28.5329C32.5442 27.7161 32.138 26.9015 31.7115 26.0462C32.4208 25.7532 33.0747 25.484 33.8078 25.1819C34.1291 26.0836 34.438 26.9535 34.7547 27.8495Z" fill="white"/>
<path d="M53.461 26.6617C52.7675 26.2985 52.0887 25.9433 51.3228 25.5417C51.7052 24.8516 52.0774 24.1762 52.4768 23.4555C53.2879 23.9284 54.0267 24.3594 54.7745 24.7961C54.3185 25.4444 53.8898 26.053 53.461 26.6617Z" fill="white"/>
<path d="M37.4077 19.1961C36.6293 19.3353 35.8578 19.4733 35.0274 19.6226C34.8747 18.9099 34.7276 18.2266 34.5703 17.489C35.5467 17.3306 36.4449 17.1835 37.4088 17.0274C37.4077 17.7752 37.4077 18.4596 37.4077 19.1961Z" fill="white"/>
<path d="M54.0108 28.319C54.564 28.7286 55.0607 29.0963 55.6082 29.5013C54.7032 30.309 53.8276 31.0908 52.9361 31.8861C52.5797 31.5727 52.2731 31.3034 51.9224 30.9946C52.6171 30.1031 53.2958 29.2354 54.0108 28.319Z" fill="white"/>
<path d="M26.1206 24.8018C26.8876 24.3504 27.5969 23.9329 28.3855 23.4691C28.7724 24.149 29.1491 24.8086 29.5507 25.5134C28.8244 25.8878 28.1343 26.2442 27.3967 26.6243C26.9917 26.0462 26.5742 25.45 26.1206 24.8018Z" fill="white"/>
<path d="M26.8276 28.2987C27.5358 29.2015 28.2056 30.0545 28.8606 30.8905C28.5631 31.2231 28.2825 31.5365 27.9612 31.894C27.0494 31.0885 26.1851 30.3249 25.2596 29.5092C25.8027 29.0906 26.288 28.7161 26.8276 28.2987Z" fill="white"/>
<path d="M48.8351 16.2129C49.0229 15.499 49.2027 14.818 49.4019 14.0656C50.273 14.4322 51.0751 14.7682 51.9077 15.1177C51.6181 15.8067 51.3398 16.4719 51.0547 17.1496C50.3182 16.8385 49.6179 16.5432 48.8351 16.2129Z" fill="white"/>
<path d="M31.4445 14.0713C31.6674 14.8044 31.8767 15.4945 32.0894 16.1948C31.3099 16.5047 30.5994 16.7876 29.8075 17.1032C29.5349 16.4606 29.2611 15.8169 28.9726 15.1381C29.7871 14.7863 30.5587 14.4537 31.4445 14.0713Z" fill="white"/>
<path d="M58.0541 26.8427C57.476 27.4864 56.9511 28.0713 56.4103 28.6743C55.8639 28.2093 55.339 27.7636 54.7552 27.2681C55.2202 26.6504 55.6886 26.027 56.1909 25.3595C56.8233 25.8618 57.4172 26.3347 58.0541 26.8427Z" fill="white"/>
<path d="M26.1228 27.2466C25.5289 27.7161 25.0017 28.1324 24.4168 28.594C23.8885 28.0294 23.3681 27.4717 22.7877 26.8506C23.4065 26.3381 23.9926 25.8516 24.6363 25.3177C25.1284 25.9546 25.6047 26.5734 26.1228 27.2466Z" fill="white"/>
<path d="M22.3261 40.5587C20.964 40.2295 19.6743 39.9173 18.3518 39.5971C18.4276 39.1333 18.4989 38.6977 18.5747 38.2339C19.9775 38.6864 21.3136 39.1163 22.7097 39.5666C22.5784 39.9082 22.4608 40.2137 22.3261 40.5587Z" fill="white"/>
<path d="M23.3353 16.6077C23.8285 17.2774 24.2675 17.8736 24.7223 18.4913C24.0978 18.9167 23.5129 19.3138 22.8703 19.7516C22.4427 19.1679 22.0275 18.6011 21.5614 17.9664C22.1497 17.5161 22.704 17.0908 23.3353 16.6077Z" fill="white"/>
<path d="M62.4798 39.6062C61.2422 39.9173 60.0826 40.2137 58.9196 40.4999C58.4094 40.6255 58.3324 40.5236 58.2091 39.5835C58.3223 39.5383 58.4388 39.4828 58.5598 39.4444C59.7726 39.0631 60.9854 38.6853 62.2592 38.287C62.3384 38.7531 62.4074 39.1706 62.4798 39.6062Z" fill="white"/>
<path d="M56.1185 18.4947C56.5925 17.8612 57.0258 17.2831 57.5032 16.6462C58.0915 17.0862 58.6402 17.4958 59.2454 17.9472C58.8144 18.5524 58.3981 19.1384 57.941 19.781C57.3244 19.3466 56.7384 18.9325 56.1185 18.4947Z" fill="white"/>
<path d="M19.6347 15.6664C20.4221 15.1121 21.1688 14.5883 21.9686 14.0249C22.2877 14.543 22.5886 15.0306 22.8975 15.5318C22.187 16.0647 21.5025 16.5783 20.7853 17.1168C20.4086 16.6428 20.0398 16.1778 19.6347 15.6664Z" fill="white"/>
<path d="M57.9772 15.5375C58.2533 15.0499 58.518 14.5804 58.8314 14.0272C59.6436 14.5838 60.4231 15.1177 61.2444 15.6811C60.8485 16.1733 60.4797 16.6314 60.0916 17.1156C59.3834 16.5862 58.699 16.076 57.9772 15.5375Z" fill="white"/>
<path d="M17.1911 39.1774C16.1594 38.959 15.1774 38.752 14.166 38.5371C14.2678 38.0201 14.3594 37.5494 14.4726 36.9781C15.4964 37.3017 16.4682 37.6071 17.4796 37.9262C17.3755 38.3775 17.2861 38.7656 17.1911 39.1774Z" fill="white"/>
<path d="M63.5942 39.1955C63.5003 38.7407 63.4211 38.3606 63.3317 37.9284C64.3284 37.6207 65.2912 37.3243 66.2449 37.0302C66.2844 37.0822 66.3172 37.1071 66.3286 37.141C66.7913 38.5076 66.7913 38.5076 65.4224 38.8018C64.8364 38.9262 64.2515 39.0529 63.5942 39.1955Z" fill="white"/>
<path d="M27.6806 15.7094C28.0008 16.3464 28.2859 16.912 28.5812 17.498C27.9329 17.8397 27.3254 18.1599 26.667 18.5072C26.3728 18.0241 26.0753 17.5365 25.7371 16.9799C26.3808 16.5602 26.9985 16.1552 27.6806 15.7094Z" fill="white"/>
<path d="M54.1726 18.5332C53.5402 18.1802 52.9417 17.8453 52.3172 17.4969C52.5944 16.8984 52.8535 16.3396 53.1397 15.7219C53.8004 16.1269 54.4317 16.5149 55.089 16.9188C54.7801 17.4641 54.5041 17.9494 54.1726 18.5332Z" fill="white"/>
<path d="M23.2798 29.482C23.7539 29.9029 24.1838 30.2841 24.6318 30.6824C24.2844 31.1224 23.9665 31.5263 23.6272 31.9573C23.1316 31.6202 22.6576 31.2978 22.1259 30.9358C22.5105 30.4504 22.8782 29.9889 23.2798 29.482Z" fill="white"/>
<path d="M56.192 30.6733C56.6264 30.2672 57.0213 29.8984 57.4828 29.4662C57.8731 29.9368 58.2476 30.3905 58.6639 30.8928C58.1718 31.2322 57.7023 31.5569 57.1921 31.9087C56.8685 31.5071 56.554 31.119 56.192 30.6733Z" fill="white"/>
<path d="M25.5741 31.5127C26.0753 31.946 26.5233 32.3329 27.0007 32.7459C26.719 33.0547 26.4701 33.3262 26.2065 33.6159C25.7235 33.2617 25.2574 32.919 24.7336 32.5354C25.0096 32.1994 25.2642 31.8906 25.5741 31.5127Z" fill="white"/>
<path d="M42.7825 8.90345C43.2328 8.9272 43.6084 8.94644 44.079 8.97019C44.0406 9.59128 44.0032 10.1965 43.9625 10.8369C43.5303 10.8041 43.1627 10.7769 42.7825 10.7486C42.7825 10.1343 42.7825 9.54038 42.7825 8.90345Z" fill="white"/>
<path d="M55.2451 31.4992C55.5404 31.8657 55.7836 32.1678 56.0732 32.5287C55.5777 32.8895 55.1025 33.2357 54.5969 33.6034C54.3468 33.3262 54.1138 33.066 53.8479 32.7719C54.3163 32.3454 54.7541 31.9472 55.2451 31.4992Z" fill="white"/>
<path d="M38.0175 10.7543C37.6622 10.7746 37.3115 10.7939 36.885 10.8176C36.8386 10.2192 36.7934 9.63201 36.7425 8.98603C37.1916 8.98603 37.5785 8.98603 38.0175 8.98603C38.0175 9.53811 38.0175 10.1275 38.0175 10.7543Z" fill="white"/>
<path d="M21.8261 28.3451C22.032 28.5747 22.1881 28.7489 22.3431 28.922C21.9947 29.404 21.67 29.8542 21.3091 30.3543C21.0783 30.1959 20.8419 30.0341 20.5421 29.8293C20.9765 29.3282 21.3826 28.8587 21.8261 28.3451Z" fill="white"/>
<path d="M58.5101 28.9277C58.6718 28.7455 58.8065 28.5962 58.9875 28.3926C59.44 28.8315 59.8631 29.2411 60.3428 29.706C60.0306 29.9606 59.7964 30.1506 59.5475 30.3543C59.1968 29.8723 58.8698 29.4232 58.5101 28.9277Z" fill="white"/>
<path d="M42.7045 12.5395C43.0676 12.561 43.3969 12.5813 43.777 12.604C43.7442 13.0452 43.7147 13.4479 43.6842 13.8722C43.3437 13.8722 43.0348 13.8722 42.7045 13.8722C42.7045 13.4151 42.7045 12.9954 42.7045 12.5395Z" fill="white"/>
<path d="M38.1453 13.8756C37.8048 13.8756 37.4948 13.8756 37.1554 13.8756C37.1169 13.4683 37.0819 13.0836 37.0389 12.6334C37.4077 12.5961 37.7527 12.5621 38.1453 12.5225C38.1453 12.9683 38.1453 13.3902 38.1453 13.8756Z" fill="white"/>
<path d="M67.5572 44.4844C67.2155 45.0817 66.9327 45.5772 66.6352 46.0965C66.358 45.5772 66.1046 45.1021 65.8161 44.5613C66.3738 44.5364 66.9033 44.5138 67.5572 44.4844Z" fill="white"/>
<path d="M65.8116 46.3499C65.4235 46.015 65.1316 45.7299 64.8058 45.4912C64.4936 45.2627 64.1463 45.0806 63.8227 44.8837C64.704 44.3271 65.5072 44.869 65.8116 46.3499Z" fill="white"/>
<path d="M67.8321 45.4234C68.2835 45.2322 68.7156 45.0489 69.1614 44.86C68.4962 44.5217 68.271 44.6167 67.8321 45.4234Z" fill="white"/>
<path d="M13.4408 44.5183C14.0789 44.5183 14.597 44.5183 15.1932 44.5183C14.9228 45.0534 14.6705 45.5512 14.3877 46.1123C14.0709 45.5795 13.7836 45.0953 13.4408 44.5183Z" fill="white"/>
<path d="M15.2453 46.2583C15.8697 45.7978 16.5112 45.3249 17.1719 44.8373C16.1469 44.4063 15.2102 45.0874 15.2453 46.2583Z" fill="white"/>
<path d="M13.1523 45.3906C12.667 45.1869 12.2382 45.0059 11.7608 44.8045C12.641 44.5794 12.7688 44.6337 13.1523 45.3906Z" fill="white"/>
</svg>
