<svg width="273" height="60" viewBox="0 0 273 60" fill="none" xmlns="http://www.w3.org/2000/svg">
<rect x="-2" width="269" height="60" fill="#0B3727"/>
<path d="M11.9352 54.5C11.9352 53.2069 11.9352 51.9138 11.9352 50.5121C14.2917 50.425 16.5543 50.3424 18.8362 50.2587C18.8362 51.7362 18.8362 53.1186 18.8362 54.5C16.5362 54.5 14.2352 54.5 11.9352 54.5Z" fill="white"/>
<path d="M48.7029 54.5C48.0467 54.2794 47.3826 54.0757 46.7378 53.8257C46.5952 53.7703 46.4221 53.5542 46.4199 53.4094C46.3961 51.9443 46.4052 50.4781 46.4052 48.8694C48.3273 49.2269 50.1939 49.5731 52.0957 49.9261C52.0957 51.4963 52.0957 52.9987 52.0957 54.5C50.9655 54.5 49.8342 54.5 48.7029 54.5Z" fill="white"/>
<path d="M25.3978 54.5C25.3763 53.1831 25.3503 51.8663 25.3446 50.5494C25.3446 50.4442 25.477 50.2575 25.5675 50.244C27.6073 49.9498 29.6504 49.6749 31.7207 49.3921C31.7207 50.658 31.7207 51.9715 31.7207 53.3268C30.6833 53.6074 29.6357 53.8845 28.5915 54.1787C28.311 54.2579 28.0462 54.3914 27.7736 54.5C26.9817 54.5 26.1897 54.5 25.3978 54.5Z" fill="white"/>
<path d="M5.48671 54.5C5.12242 53.639 4.75927 52.7781 4.35313 51.8176C6.47434 51.3956 8.49147 50.9952 10.5776 50.5811C10.5776 51.9522 10.5776 53.2261 10.5776 54.5C8.88065 54.5 7.18368 54.5 5.48671 54.5Z" fill="white"/>
<path d="M58.5453 54.5C58.5453 53.4693 58.5453 52.4398 58.5453 51.4024C60.6246 51.5812 62.6565 51.7554 64.7675 51.9364C64.7675 52.7826 64.7675 53.6413 64.7675 54.5C62.6938 54.5 60.619 54.5 58.5453 54.5Z" fill="white"/>
<path d="M20.3069 54.5C20.3069 53.1311 20.3069 51.7611 20.3069 50.3503C21.5163 50.3503 22.7076 50.3503 23.9271 50.3503C23.9271 51.7339 23.9271 53.1175 23.9271 54.5C22.72 54.5 21.514 54.5 20.3069 54.5Z" fill="white"/>
<path d="M66.1251 54.5C66.1251 53.6605 66.1251 52.8211 66.1251 51.9194C68.2576 51.9194 70.2929 51.9194 72.3971 51.9194C72.0385 52.7849 71.6844 53.6424 71.3291 54.5C69.5948 54.5 67.8594 54.5 66.1251 54.5Z" fill="white"/>
<path d="M53.5675 54.5C53.5675 53.0971 53.5675 51.6943 53.5675 50.2428C54.7667 50.5438 55.9263 50.8345 57.1877 51.1513C57.1877 52.2634 57.1877 53.3822 57.1877 54.5C55.9806 54.5 54.7746 54.5 53.5675 54.5Z" fill="white"/>
<path d="M50.5684 39.9886C50.5345 40.7115 50.7076 41.4344 50.4225 41.7931C50.1543 42.1291 49.4065 42.0985 48.8635 42.1969C45.3553 42.8282 41.9218 43.7299 38.5697 44.9472C38.3751 45.0173 38.1115 45.0456 37.9271 44.9732C34.4234 43.5986 30.7897 42.7173 27.0869 42.1087C26.5348 42.0182 26.4137 41.7976 26.3685 41.2885C25.9352 36.4306 28.2589 31.5264 32.6642 29.2423C40.0551 25.4105 48.9438 29.4165 50.3998 38.1219C50.5118 38.7883 50.5231 39.4705 50.5684 39.9886Z" fill="white"/>
<path d="M74.9539 42.4967C74.5149 44.4234 74.1054 46.2923 73.6551 48.1522C73.5103 48.7518 73.4209 49.529 73.0125 49.8514C72.6335 50.1489 71.8597 49.9826 71.2635 49.9589C67.8764 49.822 64.4756 49.805 61.1077 49.4701C58.6301 49.2235 56.1786 48.6194 53.7429 48.0526C49.0853 46.9677 44.3982 46.1995 39.5969 46.3307C39.5076 46.333 39.4182 46.3183 39.2994 46.1995C40.2033 45.8907 41.1016 45.5592 42.0134 45.2752C45.8655 44.0783 49.7968 43.2185 53.7983 42.7434C56.8427 42.3813 59.9074 42.1856 62.9642 41.9288C63.6034 41.8745 63.6679 41.8145 63.5118 41.1708C63.1735 39.7771 61.3329 38.4398 59.8848 38.5021C58.9062 38.5439 57.9253 38.5507 56.9456 38.5349C56.7341 38.5315 56.4048 38.4127 56.3471 38.2634C56.2827 38.0993 56.406 37.7463 56.561 37.6366C56.8879 37.4058 57.2929 37.2882 57.6583 37.1083C57.8088 37.0336 57.9943 36.9476 58.069 36.8141C58.3892 36.2462 58.8688 36.0765 59.4888 36.1116C59.6619 36.1218 59.9097 36.02 60.0103 35.8842C60.4391 35.3095 60.9584 35.0674 61.6756 35.2314C61.8442 35.2699 62.0965 35.2235 62.2243 35.1149C63.0717 34.3909 64.0039 34.3128 65.0288 34.6364C65.297 34.7212 65.599 34.6941 65.8864 34.7178C65.9045 34.719 65.9248 34.7065 65.9418 34.7099C67.0675 34.9825 68.3685 34.8072 69.1491 35.9668C69.1943 36.0335 69.286 36.0765 69.364 36.1093C69.4319 36.1376 69.5111 36.1354 69.5858 36.1478C70.2023 36.2485 70.4806 36.7723 70.9015 37.1343C71.2839 37.4635 71.8631 37.5552 72.327 37.8029C72.4457 37.8663 72.5555 38.1898 72.4955 38.2826C72.4084 38.4195 72.1652 38.5258 71.9876 38.5258C70.9524 38.527 69.9059 38.3901 68.8855 38.4987C67.4929 38.6469 66.1421 39.0202 65.2053 40.2103C65.1589 40.2692 65.1227 40.3359 65.0877 40.4027C64.4813 41.5306 64.6883 41.8541 65.926 41.9152C68.7837 42.0566 71.6391 42.2444 74.4957 42.4153C74.5873 42.4221 74.6778 42.4469 74.9539 42.4967ZM65.5572 37.8697C64.9033 37.8991 64.3738 37.9217 63.8161 37.9466C64.1046 38.4874 64.358 38.9614 64.6352 39.4818C64.9327 38.9625 65.2155 38.467 65.5572 37.8697ZM63.8116 39.7352C63.5084 38.2543 62.704 37.7124 61.8216 38.269C62.1463 38.467 62.4936 38.648 62.8047 38.8765C63.1305 39.1152 63.4235 39.4003 63.8116 39.7352ZM67.1614 38.2453C66.4962 37.907 66.271 38.002 65.8321 38.8086C66.2835 38.6175 66.7156 38.4342 67.1614 38.2453Z" fill="white"/>
<path d="M18.8498 36.8832C19.5139 37.2248 19.9766 37.4273 20.394 37.7C20.5196 37.7814 20.6169 38.1095 20.5524 38.2294C20.4687 38.3833 20.2096 38.5247 20.0241 38.5281C18.9889 38.5439 17.9515 38.5032 16.9164 38.5089C15.5973 38.5156 13.4749 39.8257 13.4116 41.4729C13.407 41.5826 13.4251 41.6935 13.4342 41.8236C21.3149 42.2648 29.087 43.171 36.4915 46.0208C36.4903 46.1079 36.4881 46.195 36.4869 46.281C33.0636 46.8364 29.6561 47.539 26.2124 47.9021C23.3366 48.2065 20.42 48.1748 17.5216 48.1838C13.3652 48.1974 9.23814 48.4011 5.18578 49.4125C4.71176 49.5312 4.23887 49.6534 3.69358 49.7926C2.78287 47.4225 2.39257 44.9472 2 42.3101C5.42562 42.1268 8.77996 41.948 12.1739 41.7659C12.1818 40.9287 11.9884 40.1685 11.2824 39.6718C10.2009 38.9105 9.0017 38.4794 7.64751 38.5292C6.72549 38.5632 5.80008 38.5462 4.87693 38.5292C4.70723 38.5258 4.42327 38.4444 4.39725 38.3448C4.35426 38.1819 4.43685 37.9455 4.54319 37.7927C4.89277 37.2916 5.51046 37.364 5.98901 37.1445C6.45398 36.9318 6.78432 36.4352 7.24137 36.1919C7.49705 36.0562 7.76404 36.0268 7.93826 35.7292C8.16679 35.3378 8.57293 35.2405 9.0164 35.1206C9.97123 34.8626 10.9509 34.8004 11.9046 34.599C12.9353 34.3818 13.8709 34.3219 14.7261 35.0583C14.8596 35.1737 15.0949 35.2541 15.2646 35.228C16.2172 35.0821 16.6086 35.2597 17.0996 36.1252C18.2649 36.0844 18.4663 36.1931 18.8498 36.8832ZM11.4408 37.9036C11.7836 38.4806 12.0709 38.9659 12.3877 39.4976C12.6717 38.9365 12.9228 38.4387 13.1932 37.9036C12.597 37.9036 12.0789 37.9036 11.4408 37.9036ZM15.1719 38.2226C14.1458 37.7927 13.2102 38.4738 13.2453 39.6436C13.8697 39.1831 14.5112 38.7102 15.1719 38.2226ZM11.1523 38.7758C10.7688 38.019 10.641 37.9647 9.76081 38.1898C10.2394 38.3912 10.6681 38.5722 11.1523 38.7758Z" fill="white"/>
<path d="M33.2107 49.012C35.4733 48.7993 37.6895 48.5911 39.9307 48.3796C39.9307 49.8661 39.9307 51.1931 39.9307 52.4512C37.6613 52.6242 35.4382 52.7939 33.2107 52.9636C33.2107 51.7328 33.2107 50.4114 33.2107 49.012Z" fill="white"/>
<path d="M59.1743 16.2084C58.3835 15.4866 57.638 14.8044 56.8743 14.1076C58.0057 12.7059 59.1245 11.3189 60.3056 9.85495C61.2797 10.6933 62.2379 11.5169 63.2595 12.3948C61.8725 13.6901 60.5432 14.9312 59.1743 16.2084Z" fill="white"/>
<path d="M19.9585 14.1132C19.1835 14.8203 18.4357 15.5025 17.6449 16.2242C16.3156 14.956 15.0112 13.7116 13.6095 12.3733C14.5938 11.5169 15.5316 10.7012 16.4978 9.86174C17.6755 11.311 18.8034 12.6957 19.9585 14.1132Z" fill="white"/>
<path d="M19.0183 25.0903C18.6145 25.7465 18.2626 26.3167 17.8938 26.9163C15.7375 25.7771 13.6016 24.6491 11.3967 23.4839C11.8673 22.6931 12.3334 21.9102 12.8606 21.0233C14.9467 22.4001 16.9729 23.7384 19.0183 25.0903Z" fill="white"/>
<path d="M65.3999 23.485C63.2176 24.6514 61.1168 25.7725 58.9661 26.9219C58.6041 26.3291 58.2466 25.7431 57.8495 25.0937C59.8689 23.7475 61.8759 22.4091 63.9417 21.0312C64.4451 21.8785 64.9112 22.6637 65.3999 23.485Z" fill="white"/>
<path d="M44.9695 48.7133C44.9695 50.3141 44.9695 51.8142 44.9695 53.3913C43.7602 53.182 42.5892 52.9795 41.3912 52.7724C41.3912 51.364 41.3912 49.9804 41.3912 48.4983C42.5791 48.5696 43.7488 48.6398 44.9695 48.7133Z" fill="white"/>
<path d="M4.10198 26.5486C4.54998 25.5463 4.93802 24.6785 5.35321 23.7509C6.98343 24.4613 8.52768 25.1333 10.0844 25.811C9.80719 26.4864 9.55038 27.1165 9.27661 27.7851C7.57737 27.379 5.90303 26.9796 4.10198 26.5486Z" fill="white"/>
<path d="M72.7037 26.543C70.9343 26.974 69.2464 27.3858 67.537 27.8021C67.296 27.2138 67.0528 26.6697 66.8593 26.1074C66.8254 26.0078 66.9657 25.7635 67.0811 25.7103C68.5122 25.0553 69.9523 24.4229 71.4683 23.7497C71.8722 24.6616 72.2704 25.5621 72.7037 26.543Z" fill="white"/>
<path d="M10.3321 15.6416C10.986 14.8938 11.6003 14.1913 12.244 13.4548C13.4647 14.5748 14.6515 15.6631 15.871 16.782C15.345 17.4031 14.8189 18.0242 14.268 18.6747C12.9556 17.6633 11.6806 16.6802 10.3321 15.6416Z" fill="white"/>
<path d="M62.5886 18.6928C62.0433 18.0287 61.5354 17.4099 60.9923 16.748C62.1745 15.6699 63.3398 14.6076 64.5684 13.4876C65.2031 14.1992 65.8332 14.904 66.4769 15.6258C65.168 16.6587 63.9009 17.6588 62.5886 18.6928Z" fill="white"/>
<path d="M50.3863 12.3846C49.9858 13.3213 49.6283 14.1585 49.2651 15.0092C47.9064 14.5171 46.6065 14.0465 45.2444 13.5532C45.4843 12.6267 45.7264 11.6956 45.9945 10.6604C47.4494 11.2318 48.8692 11.7884 50.3863 12.3846Z" fill="white"/>
<path d="M26.5246 12.4242C27.9761 11.8166 29.3552 11.2397 30.793 10.6367C31.0702 11.6198 31.3316 12.5497 31.6053 13.517C30.2692 14.0035 28.9569 14.4809 27.5733 14.9832C27.2419 14.1743 26.9047 13.353 26.5246 12.4242Z" fill="white"/>
<path d="M39.7926 6.82756C38.8548 6.82756 38.012 6.82756 37.0979 6.82756C37.0979 5.29915 37.0979 3.80695 37.0979 2.27063C37.9678 2.27063 38.8638 2.27063 39.7926 2.27063C39.7926 3.77528 39.7926 5.28671 39.7926 6.82756Z" fill="white"/>
<path d="M37.056 15.1371C37.9837 15.1371 38.8412 15.1371 39.7632 15.1371C39.6377 16.9324 39.5143 18.6815 39.391 20.4497C38.7451 20.4497 38.1307 20.4497 37.4531 20.4497C37.3196 18.6769 37.1895 16.9257 37.056 15.1371Z" fill="white"/>
<path d="M14.7194 19.97C15.4626 19.1634 16.1369 18.4314 16.8598 17.6474C17.7931 18.5208 18.7061 19.3738 19.644 20.2506C19.0116 20.9271 18.3995 21.581 17.74 22.287C16.7478 21.5256 15.7703 20.7755 14.7194 19.97Z" fill="white"/>
<path d="M62.1248 19.9157C61.1643 20.668 60.2411 21.4034 59.2954 22.1105C59.2184 22.1682 58.9469 22.0743 58.844 21.9713C58.3145 21.4396 57.8111 20.883 57.2748 20.3094C58.1742 19.4281 59.0691 18.5525 59.9968 17.6429C60.6778 18.3703 61.3804 19.1193 62.1248 19.9157Z" fill="white"/>
<path d="M7.29794 20.0345C8.38966 20.7291 9.38408 21.3717 10.3909 21.9951C10.6907 22.1806 10.7801 22.3503 10.5606 22.6659C10.357 22.9567 10.2133 23.2893 10.0278 23.5936C9.55038 24.3754 9.54812 24.372 8.69285 23.9624C7.77875 23.5257 6.86351 23.0902 5.8657 22.615C6.3465 21.7484 6.80582 20.9203 7.29794 20.0345Z" fill="white"/>
<path d="M67.236 24.3833C66.8752 23.7407 66.5267 23.1456 66.2122 22.5324C66.1636 22.4374 66.2246 22.1942 66.3118 22.1342C67.3492 21.4272 68.4013 20.7416 69.5077 20.013C69.9806 20.8694 70.4399 21.6998 70.94 22.606C69.7159 23.1931 68.5235 23.7656 67.236 24.3833Z" fill="white"/>
<path d="M11.4442 29.8045C11.2428 30.7277 11.0629 31.5479 10.865 32.4552C9.72008 32.2346 8.59103 32.0162 7.37826 31.7832C7.5423 30.7933 7.70295 29.8272 7.87378 28.7965C9.10125 29.1427 10.2665 29.4719 11.4442 29.8045Z" fill="white"/>
<path d="M68.9059 28.8327C69.0971 29.8294 69.2724 30.7435 69.4636 31.7368C68.2599 31.9902 67.1161 32.2312 65.8977 32.488C65.7144 31.5931 65.5413 30.7424 65.3569 29.8385C66.5278 29.5059 67.6716 29.1823 68.9059 28.8327Z" fill="white"/>
<path d="M6.24808 31.3103C5.09301 31.0727 4.01034 30.8499 2.84283 30.61C3.11661 29.6337 3.38133 28.6913 3.6585 27.7025C4.7604 28.0182 5.77972 28.3101 6.83523 28.6133C6.63499 29.5285 6.44606 30.3996 6.24808 31.3103Z" fill="white"/>
<path d="M70.0044 28.6596C71.0486 28.3429 72.0498 28.0385 73.1347 27.7093C73.4187 28.6698 73.6936 29.5975 73.9922 30.6066C72.8326 30.851 71.7375 31.0807 70.5802 31.3239C70.389 30.4392 70.2012 29.5703 70.0044 28.6596Z" fill="white"/>
<path d="M48.2764 3.51507C49.4292 3.91103 50.4722 4.26966 51.5425 4.63734C51.1001 5.62045 50.6793 6.55604 50.2618 7.48711C49.4801 7.13754 48.7198 6.81398 47.98 6.45083C47.8453 6.38522 47.6881 6.13859 47.713 6.00849C47.8657 5.20073 48.0693 4.40202 48.2764 3.51507Z" fill="white"/>
<path d="M29.2522 6.2619C28.3392 6.68614 27.4896 7.08097 26.5936 7.4973C26.1773 6.55491 25.7644 5.62158 25.3265 4.63055C26.4194 4.25608 27.4421 3.90425 28.5655 3.5196C28.7974 4.44841 29.018 5.3297 29.2522 6.2619Z" fill="white"/>
<path d="M34.0852 6.1895C34.2243 7.24728 34.3589 8.26546 34.5004 9.34473C33.5806 9.49859 32.7185 9.64227 31.7931 9.79726C31.5771 8.74627 31.3666 7.72469 31.1505 6.6737C32.1574 6.50853 33.0964 6.35241 34.0852 6.1895Z" fill="white"/>
<path d="M45.6721 6.64316C45.4764 7.72356 45.292 8.73608 45.0962 9.81649C44.1912 9.66715 43.311 9.52235 42.3777 9.36962C42.5055 8.30958 42.6277 7.29027 42.7567 6.21552C43.716 6.3558 44.655 6.49382 45.6721 6.64316Z" fill="white"/>
<path d="M12.192 18.6792C11.7632 19.3817 11.3741 20.0187 10.9442 20.7246C9.9701 20.1522 8.99604 19.5809 7.96315 18.9745C8.5141 18.1939 9.02659 17.4664 9.57414 16.6903C10.4781 17.3782 11.3345 18.0276 12.192 18.6792Z" fill="white"/>
<path d="M21.3432 6.57528C22.2098 6.10917 22.9972 5.68493 23.8355 5.23241C24.3152 6.20081 24.7699 7.11718 25.2326 8.05164C24.5007 8.51548 23.8072 8.95443 23.0786 9.41714C22.5005 8.47136 21.9451 7.56291 21.3432 6.57528Z" fill="white"/>
<path d="M55.5507 6.56396C54.9274 7.55273 54.3504 8.46909 53.7553 9.41374C53.0426 8.96461 52.3627 8.53697 51.6341 8.07766C52.0979 7.15564 52.564 6.22683 53.0516 5.25503C53.9035 5.7019 54.7124 6.12614 55.5507 6.56396Z" fill="white"/>
<path d="M12.9341 28.8655C12.0777 28.5997 11.2406 28.3395 10.3366 28.0578C10.7145 27 11.0822 25.9728 11.4668 24.8958C12.278 25.3087 13.0145 25.6718 13.734 26.0655C13.8313 26.1187 13.9252 26.3506 13.8878 26.4513C13.5903 27.2557 13.2622 28.0476 12.9341 28.8655Z" fill="white"/>
<path d="M67.2394 16.6689C67.7723 17.4381 68.2814 18.1724 68.8357 18.9733C67.8187 19.5831 66.8627 20.1567 65.8728 20.7506C65.5142 20.1307 65.1589 19.5413 64.8388 18.9326C64.7879 18.8353 64.849 18.5943 64.9395 18.5185C65.6737 17.9054 66.4271 17.3171 67.2394 16.6689Z" fill="white"/>
<path d="M70.8596 32.6611C72.0317 32.4145 73.1257 32.1848 74.2943 31.9393C74.4482 32.8727 74.593 33.7517 74.7615 34.7699C73.6348 34.7699 72.5872 34.7767 71.5407 34.7586C71.44 34.7563 71.2782 34.6115 71.2533 34.5074C71.1051 33.9101 70.992 33.3048 70.8596 32.6611Z" fill="white"/>
<path d="M5.91774 32.6192C5.77632 33.3704 5.64622 34.0617 5.52178 34.7212C4.38594 34.7212 3.30214 34.7212 2.12897 34.7212C2.25455 33.7777 2.3722 32.9009 2.49778 31.9631C3.67774 32.1893 4.78869 32.402 5.91774 32.6192Z" fill="white"/>
<path d="M65.3264 24.898C65.7257 25.9807 66.0945 26.9796 66.4826 28.0329C65.6013 28.2999 64.7664 28.5544 63.8772 28.8248C63.5615 27.9582 63.2436 27.0837 62.9122 26.1708C63.6984 25.7556 64.4711 25.3483 65.3264 24.898Z" fill="white"/>
<path d="M46.0307 5.63968C45.0691 5.45301 44.1403 5.272 43.1662 5.08194C43.2929 4.2278 43.4117 3.42004 43.5429 2.53196C44.6211 2.72089 45.6574 2.90303 46.7457 3.09309C46.4945 3.98683 46.2694 4.7912 46.0307 5.63968Z" fill="white"/>
<path d="M33.7582 5.08986C32.7593 5.26635 31.8395 5.42812 30.8485 5.60235C30.6211 4.8059 30.3914 4.00493 30.1425 3.13269C31.2003 2.92566 32.2004 2.72881 33.2752 2.51839C33.4381 3.38384 33.5919 4.20178 33.7582 5.08986Z" fill="white"/>
<path d="M52.5912 13.026C53.391 13.5724 54.1139 14.0668 54.8516 14.5703C54.313 15.404 53.8085 16.1846 53.2881 16.9913C52.5505 16.5365 51.8513 16.1043 51.0911 15.636C51.5775 14.7909 52.0572 13.9571 52.5912 13.026Z" fill="white"/>
<path d="M22.0344 14.5612C22.763 14.0544 23.4384 13.5838 24.1805 13.0668C24.7145 13.9198 25.2383 14.7558 25.7881 15.6348C25.055 16.0693 24.3491 16.4867 23.5651 16.9517C23.0764 16.1869 22.5854 15.421 22.0344 14.5612Z" fill="white"/>
<path d="M23.3988 27.9356C23.0798 28.4096 22.8184 28.7965 22.5243 29.2332C21.3375 28.6608 20.1598 28.0929 18.9414 27.5057C19.3012 26.8756 19.6428 26.276 20.006 25.639C21.152 26.4151 22.2562 27.1629 23.3988 27.9356Z" fill="white"/>
<path d="M56.82 25.6673C57.2171 26.3156 57.5678 26.8869 57.9412 27.4966C56.7974 28.0442 55.6887 28.5838 54.5687 29.0997C54.4624 29.1484 54.2248 29.0975 54.1569 29.0092C53.9182 28.7004 53.727 28.3553 53.4702 27.948C54.5857 27.1867 55.6684 26.4513 56.82 25.6673Z" fill="white"/>
<path d="M36.2313 20.5436C35.5118 20.6613 34.8658 20.7665 34.1519 20.883C33.8657 19.9383 33.5783 18.9914 33.2638 17.9552C34.1123 17.7538 34.919 17.5615 35.772 17.359C35.9292 18.4518 36.0763 19.4677 36.2313 20.5436Z" fill="white"/>
<path d="M56.2623 15.2332C56.9965 15.8803 57.655 16.4607 58.3903 17.1089C57.7341 17.6995 57.1006 18.2697 56.4218 18.8806C55.8901 18.4111 55.2905 17.8794 54.6276 17.2933C55.1661 16.6145 55.6944 15.9493 56.2623 15.2332Z" fill="white"/>
<path d="M20.6112 15.2445C21.1712 15.9471 21.6837 16.5897 22.22 17.2628C21.5785 17.8386 20.9665 18.3873 20.2911 18.9937C19.705 18.3726 19.1213 17.7538 18.4957 17.0897C19.2276 16.4516 19.9019 15.8634 20.6112 15.2445Z" fill="white"/>
<path d="M17.3361 28.0962C16.999 28.8938 16.6867 29.6326 16.3665 30.3883C15.578 30.1009 14.7918 29.8136 13.9387 29.5025C14.26 28.6291 14.5734 27.7727 14.9105 26.8563C15.7647 27.293 16.5589 27.698 17.3361 28.0962Z" fill="white"/>
<path d="M41.2962 16.4731C41.3358 15.6767 41.3731 14.9142 41.4149 14.0612C42.4682 14.2535 43.4513 14.4322 44.4571 14.6167C44.293 15.4504 44.1448 16.2005 43.9853 17.015C43.0949 16.8352 42.2057 16.6564 41.2962 16.4731Z" fill="white"/>
<path d="M39.8368 10.3754C38.9057 10.3754 38.0086 10.3754 37.0707 10.3754C37.0707 9.53253 37.0707 8.71572 37.0707 7.89665C37.9905 7.89665 38.9012 7.89665 39.8368 7.89665C39.8368 8.73495 39.8368 9.52008 39.8368 10.3754Z" fill="white"/>
<path d="M60.4199 30.3611C60.1065 29.5851 59.8192 28.8757 59.516 28.1268C60.2977 27.7105 61.05 27.31 61.8917 26.862C62.2481 27.7354 62.592 28.5771 62.9518 29.4583C62.0874 29.7672 61.2808 30.0546 60.4199 30.3611Z" fill="white"/>
<path d="M43.5034 18.1158C43.2613 19.0921 43.0384 19.9915 42.8087 20.9158C42.0824 20.788 41.407 20.6703 40.6796 20.5425C40.8131 19.5537 40.9421 18.6023 41.0767 17.6022C41.9354 17.7843 42.6979 17.945 43.5034 18.1158Z" fill="white"/>
<path d="M48.8771 16.2571C48.5117 17.0241 48.1904 17.7006 47.8589 18.3975C47.0387 18.0977 46.2366 17.8036 45.3734 17.4879C45.6065 16.7096 45.8293 15.9663 46.068 15.1665C47.0421 15.5443 47.9449 15.895 48.8771 16.2571Z" fill="white"/>
<path d="M30.8032 15.1552C31.0306 15.9471 31.2512 16.7107 31.4775 17.497C30.6482 17.7866 29.8575 18.0638 28.9954 18.3647C28.6764 17.6802 28.3483 16.9777 28.0021 16.2356C28.9558 15.8668 29.8427 15.5251 30.8032 15.1552Z" fill="white"/>
<path d="M48.6938 19.8999C49.4235 20.3151 50.0582 20.676 50.7449 21.0663C50.1147 21.9148 49.5072 22.7327 48.8658 23.597C48.2945 23.2293 47.765 22.8899 47.196 22.5245C47.6949 21.65 48.1745 20.8083 48.6938 19.8999Z" fill="white"/>
<path d="M35.3884 13.9673C35.4654 14.7434 35.5333 15.4323 35.6045 16.1586C34.6655 16.3758 33.7627 16.5851 32.8328 16.8001C32.6688 16.0376 32.5172 15.3282 32.3486 14.5442C33.3702 14.3497 34.3408 14.1653 35.3884 13.9673Z" fill="white"/>
<path d="M29.6821 22.4951C29.0825 22.8662 28.5451 23.1977 27.9614 23.5597C27.3595 22.7372 26.7769 21.9396 26.132 21.0561C26.8221 20.6579 27.4772 20.28 28.1808 19.875C28.6786 20.7438 29.1606 21.5855 29.6821 22.4951Z" fill="white"/>
<path d="M36.9055 11.7035C37.9181 11.7035 38.9227 11.7035 39.9284 11.7035C39.9284 12.3959 39.9284 13.0577 39.9284 13.7308C38.9046 13.7308 37.935 13.7308 36.9055 13.7308C36.9055 13.0577 36.9055 12.4129 36.9055 11.7035Z" fill="white"/>
<path d="M58.3722 28.8429C58.689 29.4074 58.9718 29.9109 59.2829 30.4663C58.06 30.8906 56.8789 31.3001 55.6537 31.7255C55.4421 31.3228 55.2283 30.9166 54.976 30.4369C56.1107 29.9041 57.2069 29.3893 58.3722 28.8429Z" fill="white"/>
<path d="M21.8183 30.4234C21.5864 30.9143 21.4122 31.2854 21.2052 31.7244C20.0037 31.3035 18.8102 30.8861 17.5759 30.4539C17.8689 29.9063 18.1416 29.3984 18.4436 28.8327C19.5738 29.3656 20.6825 29.8882 21.8183 30.4234Z" fill="white"/>
<path d="M41.4285 10.4466C42.4218 10.5937 43.328 10.7272 44.2862 10.8686C44.1256 11.6198 43.974 12.3269 43.8145 13.0724C43.0112 12.9174 42.2408 12.7692 41.4285 12.6131C41.4285 11.9253 41.4285 11.2385 41.4285 10.4466Z" fill="white"/>
<path d="M47.1552 19.453C46.7366 20.306 46.3407 21.1126 45.9323 21.9453C45.3451 21.71 44.793 21.4894 44.1742 21.2416C44.4412 20.3479 44.7014 19.4756 44.9775 18.5491C45.7456 18.8681 46.4346 19.1543 47.1552 19.453Z" fill="white"/>
<path d="M32.7547 21.2348C32.1371 21.469 31.5793 21.6806 30.9526 21.9181C30.5442 21.1013 30.138 20.2868 29.7115 19.4315C30.4208 19.1385 31.0747 18.8693 31.8078 18.5672C32.1291 19.4689 32.438 20.3388 32.7547 21.2348Z" fill="white"/>
<path d="M51.461 20.047C50.7675 19.6838 50.0887 19.3286 49.3228 18.927C49.7052 18.2369 50.0774 17.5615 50.4768 16.8408C51.2879 17.3137 52.0267 17.7447 52.7745 18.1814C52.3185 18.8297 51.8898 19.4383 51.461 20.047Z" fill="white"/>
<path d="M35.4077 12.5814C34.6293 12.7206 33.8578 12.8586 33.0274 13.0079C32.8747 12.2952 32.7276 11.6119 32.5703 10.8743C33.5467 10.7159 34.4449 10.5688 35.4088 10.4127C35.4077 11.1605 35.4077 11.8449 35.4077 12.5814Z" fill="white"/>
<path d="M52.0108 21.7043C52.564 22.1139 53.0607 22.4815 53.6082 22.8865C52.7032 23.6943 51.8276 24.476 50.9361 25.2714C50.5797 24.958 50.2731 24.6887 49.9224 24.3799C50.6171 23.4884 51.2958 22.6207 52.0108 21.7043Z" fill="white"/>
<path d="M24.1206 18.1871C24.8876 17.7357 25.5969 17.3182 26.3855 16.8544C26.7724 17.5343 27.1491 18.1939 27.5507 18.8987C26.8244 19.2731 26.1343 19.6295 25.3967 20.0096C24.9917 19.4315 24.5742 18.8353 24.1206 18.1871Z" fill="white"/>
<path d="M24.8276 21.684C25.5358 22.5868 26.2056 23.4398 26.8606 24.2758C26.5631 24.6084 26.2825 24.9218 25.9612 25.2793C25.0494 24.4738 24.1851 23.7101 23.2596 22.8945C23.8027 22.4759 24.288 22.1014 24.8276 21.684Z" fill="white"/>
<path d="M46.8351 9.59814C47.0229 8.88429 47.2027 8.20324 47.4019 7.45091C48.273 7.81746 49.0751 8.15346 49.9077 8.50303C49.6181 9.192 49.3398 9.85722 49.0547 10.5349C48.3182 10.2238 47.6179 9.92849 46.8351 9.59814Z" fill="white"/>
<path d="M29.4445 7.45657C29.6674 8.18966 29.8767 8.87976 30.0894 9.58004C29.3099 9.89002 28.5994 10.1729 27.8075 10.4885C27.5349 9.8459 27.2611 9.20218 26.9726 8.5234C27.7871 8.17156 28.5587 7.83895 29.4445 7.45657Z" fill="white"/>
<path d="M56.0541 20.228C55.476 20.8717 54.9511 21.4566 54.4103 22.0596C53.8639 21.5946 53.339 21.1489 52.7552 20.6533C53.2202 20.0356 53.6886 19.4123 54.1909 18.7448C54.8233 19.2471 55.4172 19.72 56.0541 20.228Z" fill="white"/>
<path d="M24.1228 20.6318C23.5289 21.1013 23.0017 21.5177 22.4168 21.9792C21.8885 21.4147 21.3681 20.857 20.7877 20.2359C21.4065 19.7234 21.9926 19.2369 22.6363 18.703C23.1284 19.3399 23.6047 19.9587 24.1228 20.6318Z" fill="white"/>
<path d="M20.3261 33.944C18.964 33.6148 17.6743 33.3025 16.3518 32.9824C16.4276 32.5185 16.4989 32.083 16.5747 31.6192C17.9775 32.0717 19.3136 32.5016 20.7097 32.9518C20.5784 33.2935 20.4608 33.599 20.3261 33.944Z" fill="white"/>
<path d="M21.3353 9.99297C21.8285 10.6627 22.2675 11.2589 22.7223 11.8766C22.0978 12.302 21.5129 12.6991 20.8703 13.1369C20.4427 12.5531 20.0275 11.9863 19.5614 11.3517C20.1497 10.9014 20.704 10.476 21.3353 9.99297Z" fill="white"/>
<path d="M60.4798 32.9914C59.2422 33.3026 58.0826 33.599 56.9196 33.8852C56.4094 34.0108 56.3324 33.9089 56.2091 32.9688C56.3223 32.9236 56.4388 32.8681 56.5598 32.8297C57.7726 32.4484 58.9854 32.0706 60.2592 31.6723C60.3384 32.1384 60.4074 32.5559 60.4798 32.9914Z" fill="white"/>
<path d="M54.1185 11.88C54.5925 11.2465 55.0258 10.6684 55.5032 10.0314C56.0915 10.4715 56.6402 10.8811 57.2454 11.3324C56.8144 11.9377 56.3981 12.5237 55.941 13.1663C55.3244 12.7319 54.7384 12.3178 54.1185 11.88Z" fill="white"/>
<path d="M17.6347 9.05172C18.4221 8.49738 19.1688 7.97358 19.9686 7.41019C20.2877 7.92833 20.5886 8.41592 20.8975 8.91709C20.187 9.44994 19.5025 9.96356 18.7853 10.5021C18.4086 10.028 18.0398 9.56307 17.6347 9.05172Z" fill="white"/>
<path d="M55.9772 8.92275C56.2533 8.43515 56.518 7.96566 56.8314 7.41245C57.6436 7.96905 58.4231 8.50303 59.2444 9.06643C58.8485 9.55855 58.4797 10.0167 58.0916 10.5009C57.3834 9.97148 56.699 9.46126 55.9772 8.92275Z" fill="white"/>
<path d="M15.1911 32.5627C14.1594 32.3443 13.1774 32.1373 12.166 31.9223C12.2678 31.4053 12.3594 30.9347 12.4726 30.3634C13.4964 30.687 14.4682 30.9924 15.4796 31.3114C15.3755 31.7628 15.2861 32.1509 15.1911 32.5627Z" fill="white"/>
<path d="M61.5942 32.5808C61.5003 32.126 61.4211 31.7459 61.3317 31.3137C62.3284 31.006 63.2912 30.7096 64.2449 30.4154C64.2844 30.4675 64.3172 30.4924 64.3286 30.5263C64.7913 31.8929 64.7913 31.8929 63.4224 32.1871C62.8364 32.3115 62.2515 32.4382 61.5942 32.5808Z" fill="white"/>
<path d="M25.6806 9.09471C26.0008 9.73164 26.2859 10.2973 26.5812 10.8833C25.9329 11.225 25.3254 11.5451 24.667 11.8924C24.3728 11.4094 24.0753 10.9218 23.7371 10.3652C24.3808 9.94546 24.9985 9.54045 25.6806 9.09471Z" fill="white"/>
<path d="M52.1726 11.9185C51.5402 11.5655 50.9417 11.2306 50.3172 10.8822C50.5944 10.2837 50.8535 9.72485 51.1397 9.10716C51.8004 9.51217 52.4317 9.90021 53.089 10.3041C52.7801 10.8494 52.5041 11.3347 52.1726 11.9185Z" fill="white"/>
<path d="M21.2798 22.8673C21.7539 23.2882 22.1838 23.6694 22.6318 24.0676C22.2844 24.5077 21.9665 24.9116 21.6272 25.3426C21.1316 25.0055 20.6576 24.6831 20.1259 24.3211C20.5105 23.8357 20.8782 23.3741 21.2798 22.8673Z" fill="white"/>
<path d="M54.192 24.0586C54.6264 23.6524 55.0213 23.2836 55.4828 22.8515C55.8731 23.3221 56.2476 23.7758 56.6639 24.2781C56.1718 24.6175 55.7023 24.9421 55.1921 25.294C54.8685 24.8924 54.554 24.5043 54.192 24.0586Z" fill="white"/>
<path d="M23.5741 24.898C24.0753 25.3313 24.5233 25.7182 25.0007 26.1312C24.719 26.44 24.4701 26.7115 24.2065 27.0011C23.7235 26.647 23.2574 26.3042 22.7336 25.9207C23.0096 25.5847 23.2642 25.2759 23.5741 24.898Z" fill="white"/>
<path d="M40.7825 2.28873C41.2328 2.31249 41.6084 2.33172 42.079 2.35548C42.0406 2.97657 42.0032 3.58182 41.9625 4.22214C41.5303 4.18934 41.1627 4.16219 40.7825 4.1339C40.7825 3.5196 40.7825 2.92566 40.7825 2.28873Z" fill="white"/>
<path d="M53.2451 24.8844C53.5404 25.251 53.7836 25.5531 54.0732 25.9139C53.5777 26.2748 53.1025 26.621 52.5969 26.9887C52.3468 26.7115 52.1138 26.4513 51.8479 26.1572C52.3163 25.7307 52.7541 25.3324 53.2451 24.8844Z" fill="white"/>
<path d="M36.0175 4.13956C35.6622 4.15992 35.3115 4.17915 34.885 4.20291C34.8386 3.60445 34.7934 3.0173 34.7425 2.37132C35.1916 2.37132 35.5785 2.37132 36.0175 2.37132C36.0175 2.9234 36.0175 3.51281 36.0175 4.13956Z" fill="white"/>
<path d="M19.8261 21.7303C20.032 21.96 20.1881 22.1342 20.3431 22.3073C19.9947 22.7893 19.67 23.2395 19.3091 23.7396C19.0783 23.5812 18.8419 23.4194 18.5421 23.2146C18.9765 22.7135 19.3826 22.244 19.8261 21.7303Z" fill="white"/>
<path d="M56.5101 22.313C56.6718 22.1308 56.8065 21.9815 56.9875 21.7779C57.44 22.2168 57.8631 22.6263 58.3428 23.0913C58.0306 23.3459 57.7964 23.5359 57.5475 23.7396C57.1968 23.2576 56.8698 22.8085 56.5101 22.313Z" fill="white"/>
<path d="M40.7045 5.92477C41.0676 5.94627 41.3969 5.96663 41.777 5.98926C41.7442 6.43047 41.7147 6.83322 41.6842 7.25746C41.3437 7.25746 41.0348 7.25746 40.7045 7.25746C40.7045 6.80041 40.7045 6.38069 40.7045 5.92477Z" fill="white"/>
<path d="M36.1453 7.26085C35.8048 7.26085 35.4948 7.26085 35.1554 7.26085C35.1169 6.85358 35.0819 6.46893 35.0389 6.01867C35.4077 5.98134 35.7527 5.9474 36.1453 5.9078C36.1453 6.35354 36.1453 6.77552 36.1453 7.26085Z" fill="white"/>
<path d="M65.5572 37.8697C65.2155 38.467 64.9327 38.9625 64.6352 39.4818C64.358 38.9625 64.1046 38.4874 63.8161 37.9466C64.3738 37.9217 64.9033 37.8991 65.5572 37.8697Z" fill="white"/>
<path d="M63.8116 39.7352C63.4235 39.4003 63.1316 39.1152 62.8058 38.8765C62.4936 38.648 62.1463 38.4659 61.8227 38.269C62.704 37.7124 63.5072 38.2543 63.8116 39.7352Z" fill="white"/>
<path d="M65.8321 38.8086C66.2835 38.6175 66.7156 38.4342 67.1614 38.2453C66.4962 37.907 66.271 38.002 65.8321 38.8086Z" fill="white"/>
<path d="M11.4408 37.9036C12.0789 37.9036 12.597 37.9036 13.1932 37.9036C12.9228 38.4387 12.6705 38.9365 12.3877 39.4976C12.0709 38.9648 11.7836 38.4806 11.4408 37.9036Z" fill="white"/>
<path d="M13.2453 39.6436C13.8697 39.1831 14.5112 38.7102 15.1719 38.2226C14.1469 37.7916 13.2102 38.4727 13.2453 39.6436Z" fill="white"/>
<path d="M11.1523 38.7758C10.667 38.5722 10.2382 38.3912 9.76081 38.1898C10.641 37.9647 10.7688 38.019 11.1523 38.7758Z" fill="white"/>
<path d="M121.842 12.904H129.642C132.173 12.904 134.079 13.3373 135.362 14.204C136.679 15.0707 137.338 16.5787 137.338 18.728V47.536C137.338 48.7493 137.147 49.5467 136.766 49.928C136.419 50.3093 135.657 50.5 134.478 50.5H129.018V19.352C129.018 18.7973 128.931 18.416 128.758 18.208C128.619 17.9653 128.238 17.844 127.614 17.844H121.842V12.904ZM102.966 50.5H97.5061C96.3274 50.5 95.5474 50.3093 95.1661 49.928C94.8194 49.5467 94.6461 48.7493 94.6461 47.536V14.984C94.6461 14.36 94.8194 13.8573 95.1661 13.476C95.5128 13.0947 95.9634 12.904 96.5181 12.904H102.966V50.5ZM105.098 12.904H118.41C118.965 12.904 119.415 13.0947 119.762 13.476C120.109 13.8573 120.282 14.36 120.282 14.984V46.704H114.874C113.834 46.704 113.089 46.4267 112.638 45.872C112.187 45.2827 111.962 44.3467 111.962 43.064V19.352C111.962 18.7973 111.875 18.416 111.702 18.208C111.563 17.9653 111.182 17.844 110.558 17.844H105.098V12.904ZM153.246 24.5H158.29C159.607 24.5 160.682 24.5693 161.514 24.708C162.346 24.812 163.074 25.072 163.698 25.488C164.322 25.904 164.79 26.372 165.102 26.892C165.414 27.3773 165.656 28.1747 165.83 29.284C166.107 30.844 166.246 33.028 166.246 35.836C166.246 38.644 166.228 40.5507 166.194 41.556C166.159 42.5267 166.09 43.5667 165.986 44.676C165.916 45.7853 165.76 46.6 165.518 47.12C165.31 47.64 165.015 48.1773 164.634 48.732C164.287 49.252 163.819 49.616 163.23 49.824C161.947 50.2747 160.3 50.5 158.29 50.5H158.186V30.896C158.186 30.8267 158.186 30.6187 158.186 30.272C158.186 29.9253 158.168 29.6307 158.134 29.388C157.96 28.7293 157.267 28.4 156.054 28.4H153.246V24.5ZM151.686 24.5V44.104C151.686 44.1733 151.686 44.3813 151.686 44.728C151.686 45.0747 151.72 45.3693 151.79 45.612C151.928 46.2707 152.604 46.6 153.818 46.6H156.626V50.5H151.582C150.264 50.5 149.19 50.448 148.358 50.344C147.526 50.2053 146.798 49.928 146.174 49.512C145.55 49.096 145.082 48.6453 144.77 48.16C144.458 47.64 144.198 46.8253 143.99 45.716C143.747 44.156 143.626 41.972 143.626 39.164C143.626 36.356 143.643 34.4667 143.678 33.496C143.712 32.4907 143.764 31.4333 143.834 30.324C143.938 29.2147 144.094 28.4 144.302 27.88C144.544 27.36 144.839 26.84 145.186 26.32C145.567 25.7653 146.052 25.384 146.642 25.176C147.924 24.7253 149.571 24.5 151.582 24.5H151.686ZM179.043 24.5V34.016C179.043 34.6053 179.13 35.0213 179.303 35.264C179.477 35.472 179.927 35.576 180.655 35.576H183.567V39.476H176.911C173.133 39.476 171.243 37.6213 171.243 33.912V30.272C171.243 27.984 171.815 26.4587 172.959 25.696C174.138 24.8987 176.166 24.5 179.043 24.5ZM179.147 42.284V45.04C179.147 45.6293 179.234 46.0453 179.407 46.288C179.581 46.496 180.031 46.6 180.759 46.6H183.567V50.5H177.015C173.237 50.5 171.347 48.6453 171.347 44.936V43.376C171.347 42.856 171.399 42.5613 171.503 42.492C171.642 42.4227 171.729 42.388 171.763 42.388C171.798 42.3533 171.885 42.336 172.023 42.336C172.197 42.3013 172.301 42.284 172.335 42.284C174.623 42.284 176.894 42.284 179.147 42.284ZM185.127 35.576H187.259C191.038 35.576 192.927 37.4307 192.927 41.14V44.728C192.927 47.016 192.338 48.5587 191.159 49.356C190.015 50.1187 188.005 50.5 185.127 50.5V35.576ZM180.603 24.5H187.155C190.934 24.5 192.823 26.3547 192.823 30.064V32.768C190.501 32.768 188.733 32.768 187.519 32.768C186.306 32.768 185.682 32.768 185.647 32.768C185.613 32.7333 185.543 32.716 185.439 32.716C185.37 32.6813 185.318 32.6467 185.283 32.612C185.249 32.5773 185.214 32.5427 185.179 32.508C185.145 32.4387 185.127 32.3693 185.127 32.3C185.058 32.0227 185.023 31.8147 185.023 31.676V29.96C185.023 29.3707 184.937 28.972 184.763 28.764C184.59 28.5213 184.139 28.4 183.411 28.4H180.603V24.5ZM210.911 28.4H208.103C207.028 28.4 206.421 28.5907 206.283 28.972C206.075 29.4227 205.971 30.064 205.971 30.896V44.104C205.971 44.1733 205.971 44.3813 205.971 44.728C205.971 45.0747 206.005 45.3693 206.075 45.612C206.213 46.2707 206.889 46.6 208.103 46.6H210.911V50.5H205.867C204.549 50.5 203.475 50.448 202.643 50.344C201.811 50.2053 201.083 49.928 200.459 49.512C199.835 49.096 199.367 48.6453 199.055 48.16C198.743 47.64 198.483 46.8253 198.275 45.716C198.032 44.156 197.911 41.972 197.911 39.164C197.911 36.356 197.928 34.4667 197.963 33.496C197.997 32.4907 198.049 31.4333 198.119 30.324C198.223 29.2147 198.379 28.4 198.587 27.88C198.829 27.36 199.124 26.84 199.471 26.32C199.852 25.7653 200.337 25.384 200.927 25.176C202.209 24.7253 203.856 24.5 205.867 24.5H210.911V28.4ZM222.611 50.136C222.611 50.3787 222.541 50.5 222.403 50.5H218.139C216.197 50.5 214.759 50.0493 213.823 49.148C212.921 48.2467 212.471 46.7733 212.471 44.728V24.5H214.603C216.787 24.5 218.277 25.02 219.075 26.06C219.872 27.0653 220.271 28.4 220.271 30.064V44.624C220.271 45.6987 220.496 46.3053 220.947 46.444C221.189 46.548 221.519 46.6 221.935 46.6H222.195C222.472 46.6 222.611 46.7213 222.611 46.964V50.136ZM226.712 24.552H229.884C231.41 24.552 232.554 24.9333 233.316 25.696C234.114 26.424 234.512 27.3773 234.512 28.556V50.5H228.584C228.03 50.5 227.579 50.3093 227.232 49.928C226.886 49.5467 226.712 49.044 226.712 48.42V24.552ZM227.076 13.476C227.458 13.0947 228.567 12.904 230.404 12.904C232.242 12.904 233.351 13.0947 233.732 13.476C234.114 13.8227 234.304 14.8627 234.304 16.596C234.304 18.3293 234.096 19.3867 233.68 19.768C233.299 20.1493 232.207 20.34 230.404 20.34C228.602 20.34 227.492 20.1493 227.076 19.768C226.695 19.3867 226.504 18.3293 226.504 16.596C226.504 14.8627 226.695 13.8227 227.076 13.476ZM248.17 50.5H248.066C244.634 50.5 242.519 49.9107 241.722 48.732C241.341 48.1773 241.029 47.64 240.786 47.12C240.578 46.6 240.439 45.7853 240.37 44.676C240.197 42.6653 240.11 40.4293 240.11 37.968C240.11 35.5067 240.127 33.7387 240.162 32.664C240.197 31.5547 240.301 30.4453 240.474 29.336C240.682 28.192 240.942 27.3773 241.254 26.892C241.566 26.372 242.034 25.904 242.658 25.488C243.282 25.072 244.01 24.812 244.842 24.708C245.674 24.5693 246.749 24.5 248.066 24.5H248.17V50.5ZM254.202 42.284C256.525 42.284 258.293 42.284 259.506 42.284C260.719 42.284 261.343 42.3013 261.378 42.336C261.413 42.336 261.465 42.3533 261.534 42.388C261.638 42.388 261.707 42.4053 261.742 42.44C261.777 42.4747 261.811 42.5267 261.846 42.596C261.881 42.6307 261.898 42.7 261.898 42.804C261.967 43.0467 262.002 43.2373 262.002 43.376V44.936C262.002 48.6453 260.113 50.5 256.334 50.5H249.782V46.6H252.59C253.318 46.6 253.769 46.496 253.942 46.288C254.115 46.0453 254.202 45.6293 254.202 45.04V42.284ZM249.782 24.5H256.334C260.113 24.5 262.002 26.3547 262.002 30.064V33.6C259.679 33.6 257.911 33.6 256.698 33.6C255.485 33.6 254.861 33.6 254.826 33.6C254.791 33.5653 254.722 33.548 254.618 33.548C254.549 33.5133 254.497 33.4787 254.462 33.444C254.427 33.4093 254.393 33.3747 254.358 33.34C254.323 33.2707 254.306 33.2013 254.306 33.132C254.237 32.8547 254.202 32.6467 254.202 32.508V29.96C254.202 29.3707 254.115 28.972 253.942 28.764C253.769 28.5213 253.318 28.4 252.59 28.4H249.782V24.5Z" fill="white"/>
</svg>
