<svg width="275" height="55" viewBox="0 0 275 55" fill="none" xmlns="http://www.w3.org/2000/svg">
<path d="M13.9352 55C13.9352 53.7069 13.9352 52.4138 13.9352 51.0121C16.2917 50.925 18.5543 50.8424 20.8362 50.7587C20.8362 52.2362 20.8362 53.6187 20.8362 55C18.5362 55 16.2352 55 13.9352 55Z" fill="#0B3727"/>
<path d="M50.7029 55C50.0467 54.7794 49.3826 54.5758 48.7378 54.3257C48.5952 54.2703 48.4221 54.0542 48.4199 53.9094C48.3961 52.4444 48.4052 50.9782 48.4052 49.3694C50.3273 49.7269 52.1939 50.0731 54.0957 50.4261C54.0957 51.9964 54.0957 53.4987 54.0957 55C52.9655 55 51.8342 55 50.7029 55Z" fill="#0B3727"/>
<path d="M27.3978 55C27.3763 53.6831 27.3503 52.3663 27.3446 51.0494C27.3446 50.9442 27.477 50.7576 27.5675 50.744C29.6073 50.4499 31.6504 50.1749 33.7207 49.8921C33.7207 51.1581 33.7207 52.4715 33.7207 53.8268C32.6833 54.1074 31.6357 54.3846 30.5915 54.6787C30.311 54.7579 30.0462 54.8914 29.7736 55C28.9817 55 28.1897 55 27.3978 55Z" fill="#0B3727"/>
<path d="M7.48671 55C7.12242 54.1391 6.75927 53.2781 6.35313 52.3176C8.47434 51.8957 10.4915 51.4952 12.5776 51.0811C12.5776 52.4523 12.5776 53.7261 12.5776 55C10.8806 55 9.18368 55 7.48671 55Z" fill="#0B3727"/>
<path d="M60.5453 55C60.5453 53.9694 60.5453 52.9399 60.5453 51.9025C62.6246 52.0812 64.6565 52.2554 66.7675 52.4364C66.7675 53.2827 66.7675 54.1413 66.7675 55C64.6938 55 62.619 55 60.5453 55Z" fill="#0B3727"/>
<path d="M22.3069 55C22.3069 53.6311 22.3069 52.2611 22.3069 50.8503C23.5163 50.8503 24.7076 50.8503 25.9271 50.8503C25.9271 52.2339 25.9271 53.6175 25.9271 55C24.72 55 23.514 55 22.3069 55Z" fill="#0B3727"/>
<path d="M68.1251 55C68.1251 54.1606 68.1251 53.3211 68.1251 52.4195C70.2576 52.4195 72.2929 52.4195 74.3971 52.4195C74.0385 53.2849 73.6844 54.1425 73.3291 55C71.5948 55 69.8594 55 68.1251 55Z" fill="#0B3727"/>
<path d="M55.5675 55C55.5675 53.5972 55.5675 52.1943 55.5675 50.7429C56.7667 51.0438 57.9263 51.3345 59.1877 51.6513C59.1877 52.7634 59.1877 53.8823 59.1877 55C57.9806 55 56.7746 55 55.5675 55Z" fill="#0B3727"/>
<path d="M52.5684 40.4886C52.5345 41.2115 52.7076 41.9345 52.4225 42.2931C52.1543 42.6291 51.4065 42.5985 50.8635 42.697C47.3553 43.3282 43.9218 44.2299 40.5697 45.4472C40.3751 45.5173 40.1115 45.5456 39.9271 45.4732C36.4234 44.0987 32.7897 43.2174 29.0869 42.6087C28.5348 42.5182 28.4137 42.2976 28.3685 41.7885C27.9352 36.9307 30.2589 32.0264 34.6642 29.7423C42.0551 25.9105 50.9438 29.9165 52.3998 38.622C52.5118 39.2883 52.5231 39.9705 52.5684 40.4886Z" fill="#0B3727"/>
<path d="M76.9539 42.9968C76.5149 44.9234 76.1054 46.7923 75.6551 48.6522C75.5103 49.2518 75.4209 50.029 75.0125 50.3514C74.6335 50.649 73.8597 50.4827 73.2635 50.4589C69.8764 50.322 66.4756 50.305 63.1077 49.9702C60.6301 49.7235 58.1786 49.1194 55.7429 48.5526C51.0853 47.4677 46.3982 46.6995 41.5969 46.8308C41.5076 46.833 41.4182 46.8183 41.2994 46.6995C42.2033 46.3907 43.1016 46.0592 44.0134 45.7753C47.8655 44.5783 51.7968 43.7185 55.7983 43.2434C58.8427 42.8814 61.9074 42.6856 64.9642 42.4288C65.6034 42.3745 65.6679 42.3146 65.5118 41.6709C65.1735 40.2771 63.3329 38.9399 61.8848 39.0021C60.9062 39.0439 59.9253 39.0507 58.9456 39.0349C58.7341 39.0315 58.4048 38.9127 58.3471 38.7634C58.2827 38.5993 58.406 38.2464 58.561 38.1366C58.8879 37.9058 59.2929 37.7882 59.6583 37.6083C59.8088 37.5336 59.9943 37.4477 60.069 37.3142C60.3892 36.7463 60.8688 36.5766 61.4888 36.6116C61.6619 36.6218 61.9097 36.52 62.0103 36.3842C62.4391 35.8095 62.9584 35.5674 63.6756 35.7315C63.8442 35.7699 64.0965 35.7235 64.2243 35.6149C65.0717 34.8909 66.0039 34.8128 67.0288 35.1364C67.297 35.2212 67.599 35.1941 67.8864 35.2179C67.9045 35.219 67.9248 35.2065 67.9418 35.2099C69.0675 35.4826 70.3685 35.3072 71.1491 36.4668C71.1943 36.5336 71.286 36.5766 71.364 36.6094C71.4319 36.6376 71.5111 36.6354 71.5858 36.6478C72.2023 36.7485 72.4806 37.2723 72.9015 37.6343C73.2839 37.9635 73.8631 38.0552 74.327 38.3029C74.4457 38.3663 74.5555 38.6898 74.4955 38.7826C74.4084 38.9195 74.1652 39.0258 73.9876 39.0258C72.9524 39.027 71.9059 38.8901 70.8855 38.9987C69.4929 39.1469 68.1421 39.5202 67.2053 40.7104C67.1589 40.7692 67.1227 40.836 67.0877 40.9027C66.4813 42.0306 66.6883 42.3542 67.926 42.4153C70.7837 42.5567 73.6391 42.7445 76.4957 42.9153C76.5873 42.9221 76.6778 42.947 76.9539 42.9968ZM67.5572 38.3697C66.9033 38.3991 66.3738 38.4217 65.8161 38.4466C66.1046 38.9874 66.358 39.4614 66.6352 39.9818C66.9327 39.4625 67.2155 38.967 67.5572 38.3697ZM65.8116 40.2352C65.5084 38.7543 64.704 38.2124 63.8216 38.769C64.1463 38.967 64.4936 39.148 64.8047 39.3766C65.1305 39.6153 65.4235 39.9004 65.8116 40.2352ZM69.1614 38.7453C68.4962 38.407 68.271 38.5021 67.8321 39.3087C68.2835 39.1175 68.7156 38.9342 69.1614 38.7453Z" fill="#0B3727"/>
<path d="M20.8498 37.3832C21.5139 37.7248 21.9766 37.9273 22.394 38.2C22.5196 38.2815 22.6169 38.6095 22.5524 38.7295C22.4687 38.8833 22.2096 39.0247 22.0241 39.0281C20.9889 39.044 19.9515 39.0032 18.9164 39.0089C17.5973 39.0157 15.4749 40.3257 15.4116 41.9729C15.407 42.0827 15.4251 42.1935 15.4342 42.3236C23.3149 42.7648 31.087 43.671 38.4915 46.5208C38.4903 46.6079 38.4881 46.695 38.4869 46.781C35.0636 47.3365 31.6561 48.039 28.2124 48.4022C25.3366 48.7065 22.42 48.6748 19.5216 48.6839C15.3652 48.6975 11.2381 48.9011 7.18578 49.9125C6.71176 50.0313 6.23887 50.1535 5.69358 50.2926C4.78287 47.9225 4.39257 45.4472 4 42.8101C7.42562 42.6268 10.78 42.4481 14.1739 42.2659C14.1818 41.4288 13.9884 40.6685 13.2824 40.1719C12.2009 39.4105 11.0017 38.9795 9.64751 39.0292C8.72549 39.0632 7.80008 39.0462 6.87693 39.0292C6.70723 39.0259 6.42327 38.9444 6.39725 38.8448C6.35426 38.6819 6.43685 38.4455 6.54319 38.2928C6.89277 37.7916 7.51046 37.864 7.98901 37.6445C8.45398 37.4318 8.78432 36.9352 9.24137 36.692C9.49705 36.5562 9.76404 36.5268 9.93826 36.2292C10.1668 35.8378 10.5729 35.7405 11.0164 35.6206C11.9712 35.3627 12.9509 35.3004 13.9046 35.0991C14.9353 34.8819 15.8709 34.8219 16.7261 35.5584C16.8596 35.6738 17.0949 35.7541 17.2646 35.7281C18.2172 35.5821 18.6086 35.7598 19.0996 36.6252C20.2649 36.5845 20.4663 36.6931 20.8498 37.3832ZM13.4408 38.4036C13.7836 38.9806 14.0709 39.4659 14.3877 39.9977C14.6717 39.4365 14.9228 38.9387 15.1932 38.4036C14.597 38.4036 14.0789 38.4036 13.4408 38.4036ZM17.1719 38.7227C16.1458 38.2928 15.2102 38.9738 15.2453 40.1436C15.8697 39.6831 16.5112 39.2103 17.1719 38.7227ZM13.1523 39.2759C12.7688 38.519 12.641 38.4647 11.7608 38.6899C12.2394 38.8912 12.6681 39.0722 13.1523 39.2759Z" fill="#0B3727"/>
<path d="M35.2107 49.512C37.4733 49.2993 39.6895 49.0911 41.9307 48.8796C41.9307 50.3661 41.9307 51.6932 41.9307 52.9512C39.6613 53.1243 37.4382 53.294 35.2107 53.4637C35.2107 52.2328 35.2107 50.9114 35.2107 49.512Z" fill="#0B3727"/>
<path d="M61.1743 16.7084C60.3835 15.9867 59.638 15.3045 58.8743 14.6076C60.0057 13.2059 61.1245 11.8189 62.3056 10.355C63.2797 11.1933 64.2379 12.0169 65.2595 12.8948C63.8725 14.1901 62.5432 15.4312 61.1743 16.7084Z" fill="#0B3727"/>
<path d="M21.9585 14.6132C21.1835 15.3203 20.4357 16.0025 19.6449 16.7243C18.3156 15.4561 17.0112 14.2116 15.6095 12.8733C16.5938 12.0169 17.5316 11.2012 18.4978 10.3618C19.6755 11.811 20.8034 13.1957 21.9585 14.6132Z" fill="#0B3727"/>
<path d="M21.0183 25.5904C20.6145 26.2465 20.2626 26.8167 19.8938 27.4163C17.7375 26.2771 15.6016 25.1492 13.3967 23.9839C13.8673 23.1931 14.3334 22.4103 14.8606 21.5233C16.9467 22.9001 18.9729 24.2385 21.0183 25.5904Z" fill="#0B3727"/>
<path d="M67.3999 23.985C65.2176 25.1514 63.1168 26.2726 60.9661 27.422C60.6041 26.8292 60.2466 26.2431 59.8495 25.5938C61.8689 24.2475 63.8759 22.9092 65.9417 21.5312C66.4451 22.3786 66.9112 23.1637 67.3999 23.985Z" fill="#0B3727"/>
<path d="M46.9695 49.2133C46.9695 50.8141 46.9695 52.3143 46.9695 53.8913C45.7602 53.682 44.5892 53.4795 43.3912 53.2725C43.3912 51.864 43.3912 50.4804 43.3912 48.9984C44.5791 49.0697 45.7488 49.1398 46.9695 49.2133Z" fill="#0B3727"/>
<path d="M6.10198 27.0486C6.54998 26.0463 6.93802 25.1786 7.35321 24.2509C8.98343 24.9614 10.5277 25.6334 12.0844 26.311C11.8072 26.9864 11.5504 27.6166 11.2766 28.2852C9.57737 27.879 7.90303 27.4797 6.10198 27.0486Z" fill="#0B3727"/>
<path d="M74.7037 27.043C72.9343 27.474 71.2464 27.8858 69.537 28.3021C69.296 27.7139 69.0528 27.1697 68.8593 26.6074C68.8254 26.5079 68.9657 26.2635 69.0811 26.2103C70.5122 25.5553 71.9523 24.9229 73.4683 24.2498C73.8722 25.1616 74.2704 26.0621 74.7037 27.043Z" fill="#0B3727"/>
<path d="M12.3321 16.1417C12.986 15.3939 13.6003 14.6913 14.244 13.9548C15.4647 15.0748 16.6515 16.1631 17.871 17.282C17.345 17.9031 16.8189 18.5242 16.268 19.1747C14.9556 18.1633 13.6806 17.1802 12.3321 16.1417Z" fill="#0B3727"/>
<path d="M64.5886 19.1928C64.0433 18.5287 63.5354 17.9099 62.9923 17.2481C64.1745 16.1699 65.3398 15.1076 66.5684 13.9876C67.2031 14.6992 67.8332 15.404 68.4769 16.1258C67.168 17.1587 65.9009 18.1588 64.5886 19.1928Z" fill="#0B3727"/>
<path d="M52.3863 12.8846C51.9858 13.8213 51.6283 14.6585 51.2651 15.5092C49.9064 15.0171 48.6065 14.5465 47.2444 14.0532C47.4843 13.1267 47.7264 12.1956 47.9945 11.1605C49.4494 11.7318 50.8692 12.2884 52.3863 12.8846Z" fill="#0B3727"/>
<path d="M28.5246 12.9242C29.9761 12.3167 31.3552 11.7397 32.793 11.1367C33.0702 12.1198 33.3316 13.0498 33.6053 14.017C32.2692 14.5035 30.9569 14.9809 29.5733 15.4832C29.2419 14.6743 28.9047 13.853 28.5246 12.9242Z" fill="#0B3727"/>
<path d="M41.7926 7.32759C40.8548 7.32759 40.012 7.32759 39.0979 7.32759C39.0979 5.79919 39.0979 4.30698 39.0979 2.77066C39.9678 2.77066 40.8638 2.77066 41.7926 2.77066C41.7926 4.27531 41.7926 5.78674 41.7926 7.32759Z" fill="#0B3727"/>
<path d="M39.056 15.6371C39.9837 15.6371 40.8412 15.6371 41.7632 15.6371C41.6377 17.4325 41.5143 19.1815 41.391 20.9497C40.7451 20.9497 40.1307 20.9497 39.4531 20.9497C39.3196 19.177 39.1895 17.4257 39.056 15.6371Z" fill="#0B3727"/>
<path d="M16.7194 20.4701C17.4626 19.6634 18.1369 18.9315 18.8598 18.1475C19.7931 19.0208 20.7061 19.8739 21.644 20.7506C21.0116 21.4271 20.3995 22.081 19.74 22.787C18.7478 22.0256 17.7703 21.2755 16.7194 20.4701Z" fill="#0B3727"/>
<path d="M64.1248 20.4158C63.1643 21.1681 62.2411 21.9034 61.2954 22.6105C61.2184 22.6682 60.9469 22.5743 60.844 22.4713C60.3145 21.9396 59.8111 21.383 59.2748 20.8094C60.1742 19.9282 61.0691 19.0525 61.9968 18.1429C62.6778 18.8704 63.3804 19.6193 64.1248 20.4158Z" fill="#0B3727"/>
<path d="M9.29794 20.5345C10.3897 21.2292 11.3841 21.8717 12.3909 22.4951C12.6907 22.6806 12.7801 22.8503 12.5606 23.166C12.357 23.4567 12.2133 23.7893 12.0278 24.0937C11.5504 24.8754 11.5481 24.872 10.6928 24.4625C9.77875 24.0258 8.86351 23.5902 7.8657 23.1151C8.3465 22.2485 8.80582 21.4204 9.29794 20.5345Z" fill="#0B3727"/>
<path d="M69.236 24.8833C68.8752 24.2407 68.5267 23.6457 68.2122 23.0325C68.1636 22.9374 68.2246 22.6942 68.3118 22.6343C69.3492 21.9272 70.4013 21.2416 71.5077 20.513C71.9806 21.3694 72.4399 22.1998 72.94 23.106C71.7159 23.6932 70.5235 24.2656 69.236 24.8833Z" fill="#0B3727"/>
<path d="M13.4442 30.3046C13.2428 31.2277 13.0629 32.0479 12.865 32.9552C11.7201 32.7346 10.591 32.5163 9.37826 32.2832C9.5423 31.2933 9.70295 30.3272 9.87378 29.2966C11.1013 29.6427 12.2665 29.972 13.4442 30.3046Z" fill="#0B3727"/>
<path d="M70.9059 29.3328C71.0971 30.3294 71.2724 31.2435 71.4636 32.2368C70.2599 32.4903 69.1161 32.7312 67.8977 32.988C67.7144 32.0932 67.5413 31.2424 67.3569 30.3385C68.5278 30.0059 69.6716 29.6823 70.9059 29.3328Z" fill="#0B3727"/>
<path d="M8.24808 31.8103C7.09301 31.5728 6.01034 31.3499 4.84283 31.1101C5.11661 30.1337 5.38133 29.1913 5.6585 28.2026C6.7604 28.5182 7.77972 28.8101 8.83523 29.1133C8.63499 30.0285 8.44606 30.8996 8.24808 31.8103Z" fill="#0B3727"/>
<path d="M72.0044 29.1597C73.0486 28.8429 74.0498 28.5386 75.1347 28.2094C75.4187 29.1699 75.6936 30.0975 75.9922 31.1067C74.8326 31.351 73.7375 31.5807 72.5802 31.8239C72.389 30.9392 72.2012 30.0704 72.0044 29.1597Z" fill="#0B3727"/>
<path d="M50.2764 4.0151C51.4292 4.41106 52.4722 4.76969 53.5425 5.13737C53.1001 6.12048 52.6793 7.05607 52.2618 7.98715C51.4801 7.63757 50.7198 7.31401 49.98 6.95086C49.8453 6.88525 49.6881 6.63862 49.713 6.50852C49.8657 5.70076 50.0693 4.90205 50.2764 4.0151Z" fill="#0B3727"/>
<path d="M31.2522 6.76193C30.3392 7.18618 29.4896 7.581 28.5936 7.99733C28.1773 7.05494 27.7644 6.12161 27.3265 5.13058C28.4194 4.75611 29.4421 4.40428 30.5655 4.01963C30.7974 4.94844 31.018 5.82973 31.2522 6.76193Z" fill="#0B3727"/>
<path d="M36.0852 6.68953C36.2243 7.74731 36.3589 8.76549 36.5004 9.84476C35.5806 9.99862 34.7185 10.1423 33.7931 10.2973C33.5771 9.2463 33.3666 8.22472 33.1505 7.17373C34.1574 7.00856 35.0964 6.85244 36.0852 6.68953Z" fill="#0B3727"/>
<path d="M47.6721 7.14319C47.4764 8.22359 47.292 9.23611 47.0962 10.3165C46.1912 10.1672 45.311 10.0224 44.3777 9.86965C44.5055 8.80961 44.6277 7.7903 44.7567 6.71555C45.716 6.85583 46.655 6.99385 47.6721 7.14319Z" fill="#0B3727"/>
<path d="M14.192 19.1792C13.7632 19.8818 13.3741 20.5187 12.9442 21.2246C11.9701 20.6522 10.996 20.0809 9.96315 19.4745C10.5141 18.6939 11.0266 17.9665 11.5741 17.1904C12.4781 17.8782 13.3345 18.5276 14.192 19.1792Z" fill="#0B3727"/>
<path d="M23.3432 7.07531C24.2098 6.60921 24.9972 6.18496 25.8355 5.73244C26.3152 6.70084 26.7699 7.61721 27.2326 8.55167C26.5007 9.01551 25.8072 9.45446 25.0786 9.91717C24.5005 8.97139 23.9451 8.06294 23.3432 7.07531Z" fill="#0B3727"/>
<path d="M57.5507 7.06399C56.9274 8.05276 56.3504 8.96912 55.7553 9.91377C55.0426 9.46464 54.3627 9.037 53.6341 8.57769C54.0979 7.65567 54.564 6.72686 55.0516 5.75506C55.9035 6.20193 56.7124 6.62618 57.5507 7.06399Z" fill="#0B3727"/>
<path d="M14.9341 29.3656C14.0777 29.0997 13.2406 28.8395 12.3366 28.5578C12.7145 27.5 13.0822 26.4728 13.4668 25.3958C14.278 25.8087 15.0145 26.1719 15.734 26.5656C15.8313 26.6187 15.9252 26.8507 15.8878 26.9513C15.5903 27.7557 15.2622 28.5476 14.9341 29.3656Z" fill="#0B3727"/>
<path d="M69.2394 17.1689C69.7723 17.9382 70.2814 18.6724 70.8357 19.4734C69.8187 20.0831 68.8627 20.6567 67.8728 21.2507C67.5142 20.6307 67.1589 20.0413 66.8388 19.4326C66.7879 19.3353 66.849 19.0944 66.9395 19.0186C67.6737 18.4054 68.4271 17.8171 69.2394 17.1689Z" fill="#0B3727"/>
<path d="M72.8596 33.1611C74.0317 32.9145 75.1257 32.6848 76.2943 32.4393C76.4482 33.3727 76.593 34.2517 76.7615 35.2699C75.6348 35.2699 74.5872 35.2767 73.5407 35.2586C73.44 35.2563 73.2782 35.1115 73.2533 35.0074C73.1051 34.4101 72.992 33.8048 72.8596 33.1611Z" fill="#0B3727"/>
<path d="M7.91774 33.1193C7.77632 33.8705 7.64622 34.5617 7.52178 35.2212C6.38594 35.2212 5.30214 35.2212 4.12897 35.2212C4.25455 34.2777 4.3722 33.401 4.49778 32.4631C5.67774 32.6894 6.78869 32.9021 7.91774 33.1193Z" fill="#0B3727"/>
<path d="M67.3264 25.3981C67.7257 26.4807 68.0945 27.4797 68.4826 28.5329C67.6013 28.7999 66.7664 29.0545 65.8772 29.3248C65.5615 28.4583 65.2436 27.5838 64.9122 26.6708C65.6984 26.2556 66.4711 25.8483 67.3264 25.3981Z" fill="#0B3727"/>
<path d="M48.0307 6.13971C47.0691 5.95304 46.1403 5.77203 45.1662 5.58197C45.2929 4.72783 45.4117 3.92007 45.5429 3.03199C46.6211 3.22092 47.6574 3.40306 48.7457 3.59312C48.4945 4.48686 48.2694 5.29123 48.0307 6.13971Z" fill="#0B3727"/>
<path d="M35.7582 5.58989C34.7593 5.76638 33.8395 5.92815 32.8485 6.10238C32.6211 5.30593 32.3914 4.50496 32.1425 3.63272C33.2003 3.42569 34.2004 3.22884 35.2752 3.01842C35.4381 3.88387 35.5919 4.70181 35.7582 5.58989Z" fill="#0B3727"/>
<path d="M54.5912 13.5261C55.391 14.0725 56.1139 14.5669 56.8516 15.0703C56.313 15.9041 55.8085 16.6847 55.2881 17.4913C54.5505 17.0365 53.8513 16.6044 53.0911 16.136C53.5775 15.2909 54.0572 14.4571 54.5912 13.5261Z" fill="#0B3727"/>
<path d="M24.0344 15.0612C24.763 14.5544 25.4384 14.0838 26.1805 13.5668C26.7145 14.4198 27.2383 15.2558 27.7881 16.1349C27.055 16.5693 26.3491 16.9867 25.5651 17.4517C25.0764 16.6869 24.5854 15.921 24.0344 15.0612Z" fill="#0B3727"/>
<path d="M25.3988 28.4356C25.0798 28.9097 24.8184 29.2966 24.5243 29.7332C23.3375 29.1608 22.1598 28.5929 20.9414 28.0057C21.3012 27.3756 21.6428 26.776 22.006 26.1391C23.152 26.9151 24.2562 27.6629 25.3988 28.4356Z" fill="#0B3727"/>
<path d="M58.82 26.1673C59.2171 26.8156 59.5678 27.3869 59.9412 27.9967C58.7974 28.5442 57.6887 29.0839 56.5687 29.5998C56.4624 29.6484 56.2248 29.5975 56.1569 29.5092C55.9182 29.2004 55.727 28.8553 55.4702 28.4481C56.5857 27.6867 57.6684 26.9513 58.82 26.1673Z" fill="#0B3727"/>
<path d="M38.2313 21.0436C37.5118 21.1613 36.8658 21.2665 36.1519 21.383C35.8657 20.4384 35.5783 19.4915 35.2638 18.4552C36.1123 18.2538 36.919 18.0615 37.772 17.859C37.9292 18.9518 38.0763 19.9678 38.2313 21.0436Z" fill="#0B3727"/>
<path d="M58.2623 15.7332C58.9965 16.3804 59.655 16.9607 60.3903 17.609C59.7341 18.1995 59.1006 18.7697 58.4218 19.3806C57.8901 18.9111 57.2905 18.3794 56.6276 17.7934C57.1661 17.1146 57.6944 16.4494 58.2623 15.7332Z" fill="#0B3727"/>
<path d="M22.6112 15.7446C23.1712 16.4471 23.6837 17.0897 24.22 17.7628C23.5785 18.3387 22.9665 18.8873 22.2911 19.4937C21.705 18.8726 21.1213 18.2538 20.4957 17.5897C21.2276 16.9517 21.9019 16.3634 22.6112 15.7446Z" fill="#0B3727"/>
<path d="M19.3361 28.5963C18.999 29.3938 18.6867 30.1326 18.3665 30.8883C17.578 30.601 16.7918 30.3136 15.9387 30.0025C16.26 29.1291 16.5734 28.2727 16.9105 27.3564C17.7647 27.793 18.5589 28.1981 19.3361 28.5963Z" fill="#0B3727"/>
<path d="M43.2962 16.9732C43.3358 16.1767 43.3731 15.4142 43.4149 14.5612C44.4682 14.7535 45.4513 14.9323 46.4571 15.1167C46.293 15.9505 46.1448 16.7005 45.9853 17.5151C45.0949 17.3352 44.2057 17.1564 43.2962 16.9732Z" fill="#0B3727"/>
<path d="M41.8368 10.8754C40.9057 10.8754 40.0086 10.8754 39.0707 10.8754C39.0707 10.0326 39.0707 9.21575 39.0707 8.39668C39.9905 8.39668 40.9012 8.39668 41.8368 8.39668C41.8368 9.23498 41.8368 10.0201 41.8368 10.8754Z" fill="#0B3727"/>
<path d="M62.4199 30.8612C62.1065 30.0851 61.8192 29.3758 61.516 28.6268C62.2977 28.2105 63.05 27.81 63.8917 27.362C64.2481 28.2354 64.592 29.0771 64.9518 29.9584C64.0874 30.2672 63.2808 30.5546 62.4199 30.8612Z" fill="#0B3727"/>
<path d="M45.5034 18.6158C45.2613 19.5922 45.0384 20.4916 44.8087 21.4158C44.0824 21.288 43.407 21.1703 42.6796 21.0425C42.8131 20.0537 42.9421 19.1023 43.0767 18.1022C43.9354 18.2844 44.6979 18.445 45.5034 18.6158Z" fill="#0B3727"/>
<path d="M50.8771 16.7571C50.5117 17.5241 50.1904 18.2006 49.8589 18.8975C49.0387 18.5977 48.2366 18.3036 47.3734 17.988C47.6065 17.2096 47.8293 16.4663 48.068 15.6665C49.0421 16.0444 49.9449 16.3951 50.8771 16.7571Z" fill="#0B3727"/>
<path d="M32.8032 15.6552C33.0306 16.4471 33.2512 17.2107 33.4775 17.997C32.6482 18.2866 31.8575 18.5638 30.9954 18.8647C30.6764 18.1803 30.3483 17.4777 30.0021 16.7356C30.9558 16.3668 31.8427 16.0251 32.8032 15.6552Z" fill="#0B3727"/>
<path d="M50.6938 20.3999C51.4235 20.8151 52.0582 21.176 52.7449 21.5663C52.1147 22.4148 51.5072 23.2327 50.8658 24.097C50.2945 23.7294 49.765 23.39 49.196 23.0246C49.6949 22.1501 50.1745 21.3084 50.6938 20.3999Z" fill="#0B3727"/>
<path d="M37.3884 14.4673C37.4654 15.2434 37.5333 15.9324 37.6045 16.6587C36.6655 16.8759 35.7627 17.0852 34.8328 17.3001C34.6688 16.5376 34.5172 15.8283 34.3486 15.0443C35.3702 14.8497 36.3408 14.6653 37.3884 14.4673Z" fill="#0B3727"/>
<path d="M31.6821 22.9951C31.0825 23.3662 30.5451 23.6977 29.9614 24.0597C29.3595 23.2372 28.7769 22.4397 28.132 21.5561C28.8221 21.1579 29.4772 20.78 30.1808 20.375C30.6786 21.2439 31.1606 22.0856 31.6821 22.9951Z" fill="#0B3727"/>
<path d="M38.9055 12.2035C39.9181 12.2035 40.9227 12.2035 41.9284 12.2035C41.9284 12.8959 41.9284 13.5577 41.9284 14.2309C40.9046 14.2309 39.935 14.2309 38.9055 14.2309C38.9055 13.5577 38.9055 12.9129 38.9055 12.2035Z" fill="#0B3727"/>
<path d="M60.3722 29.3429C60.689 29.9075 60.9718 30.4109 61.2829 30.9664C60.06 31.3906 58.8789 31.8002 57.6537 32.2255C57.4421 31.8228 57.2283 31.4166 56.976 30.937C58.1107 30.4041 59.2069 29.8894 60.3722 29.3429Z" fill="#0B3727"/>
<path d="M23.8183 30.9234C23.5864 31.4144 23.4122 31.7854 23.2052 32.2244C22.0037 31.8035 20.8102 31.3861 19.5759 30.9539C19.8689 30.4064 20.1416 29.8984 20.4436 29.3328C21.5738 29.8656 22.6825 30.3883 23.8183 30.9234Z" fill="#0B3727"/>
<path d="M43.4285 10.9467C44.4218 11.0937 45.328 11.2272 46.2862 11.3686C46.1256 12.1198 45.974 12.8269 45.8145 13.5724C45.0112 13.4174 44.2408 13.2692 43.4285 13.1131C43.4285 12.4253 43.4285 11.7386 43.4285 10.9467Z" fill="#0B3727"/>
<path d="M49.1552 19.953C48.7366 20.8061 48.3407 21.6127 47.9323 22.4453C47.3451 22.21 46.793 21.9894 46.1742 21.7417C46.4412 20.8479 46.7014 19.9757 46.9775 19.0491C47.7456 19.3682 48.4346 19.6544 49.1552 19.953Z" fill="#0B3727"/>
<path d="M34.7547 21.7349C34.1371 21.969 33.5793 22.1806 32.9526 22.4182C32.5442 21.6014 32.138 20.7868 31.7115 19.9315C32.4208 19.6385 33.0747 19.3693 33.8078 19.0672C34.1291 19.9689 34.438 20.8389 34.7547 21.7349Z" fill="#0B3727"/>
<path d="M53.461 20.547C52.7675 20.1838 52.0887 19.8286 51.3228 19.427C51.7052 18.7369 52.0774 18.0615 52.4768 17.3408C53.2879 17.8137 54.0267 18.2448 54.7745 18.6814C54.3185 19.3297 53.8898 19.9383 53.461 20.547Z" fill="#0B3727"/>
<path d="M37.4077 13.0814C36.6293 13.2206 35.8578 13.3586 35.0274 13.508C34.8747 12.7952 34.7276 12.1119 34.5703 11.3743C35.5467 11.2159 36.4449 11.0688 37.4088 10.9127C37.4077 11.6605 37.4077 12.345 37.4077 13.0814Z" fill="#0B3727"/>
<path d="M54.0108 22.2044C54.564 22.6139 55.0607 22.9816 55.6082 23.3866C54.7032 24.1943 53.8276 24.9761 52.9361 25.7714C52.5797 25.458 52.2731 25.1888 51.9224 24.8799C52.6171 23.9884 53.2958 23.1207 54.0108 22.2044Z" fill="#0B3727"/>
<path d="M26.1206 18.6871C26.8876 18.2357 27.5969 17.8183 28.3855 17.3544C28.7724 18.0343 29.1491 18.6939 29.5507 19.3987C28.8244 19.7732 28.1343 20.1295 27.3967 20.5097C26.9917 19.9316 26.5742 19.3353 26.1206 18.6871Z" fill="#0B3727"/>
<path d="M26.8276 22.184C27.5358 23.0868 28.2056 23.9398 28.8606 24.7758C28.5631 25.1084 28.2825 25.4218 27.9612 25.7793C27.0494 24.9738 26.1851 24.2102 25.2596 23.3945C25.8027 22.9759 26.288 22.6014 26.8276 22.184Z" fill="#0B3727"/>
<path d="M48.8351 10.0982C49.0229 9.38432 49.2027 8.70327 49.4019 7.95094C50.273 8.31749 51.0751 8.65349 51.9077 9.00306C51.6181 9.69203 51.3398 10.3572 51.0547 11.0349C50.3182 10.7238 49.6179 10.4285 48.8351 10.0982Z" fill="#0B3727"/>
<path d="M31.4445 7.9566C31.6674 8.68969 31.8767 9.37979 32.0894 10.0801C31.3099 10.3901 30.5994 10.6729 29.8075 10.9885C29.5349 10.3459 29.2611 9.70222 28.9726 9.02343C29.7871 8.67159 30.5587 8.33898 31.4445 7.9566Z" fill="#0B3727"/>
<path d="M58.0541 20.728C57.476 21.3717 56.9511 21.9566 56.4103 22.5596C55.8639 22.0946 55.339 21.6489 54.7552 21.1534C55.2202 20.5357 55.6886 19.9123 56.1909 19.2448C56.8233 19.7471 57.4172 20.22 58.0541 20.728Z" fill="#0B3727"/>
<path d="M26.1228 21.1319C25.5289 21.6014 25.0017 22.0177 24.4168 22.4793C23.8885 21.9147 23.3681 21.357 22.7877 20.7359C23.4065 20.2234 23.9926 19.737 24.6363 19.203C25.1284 19.8399 25.6047 20.4587 26.1228 21.1319Z" fill="#0B3727"/>
<path d="M22.3261 34.444C20.964 34.1148 19.6743 33.8026 18.3518 33.4824C18.4276 33.0186 18.4989 32.583 18.5747 32.1192C19.9775 32.5717 21.3136 33.0016 22.7097 33.4519C22.5784 33.7935 22.4608 34.099 22.3261 34.444Z" fill="#0B3727"/>
<path d="M23.3353 10.493C23.8285 11.1627 24.2675 11.7589 24.7223 12.3766C24.0978 12.802 23.5129 13.1991 22.8703 13.6369C22.4427 13.0532 22.0275 12.4864 21.5614 11.8517C22.1497 11.4014 22.704 10.9761 23.3353 10.493Z" fill="#0B3727"/>
<path d="M62.4798 33.4915C61.2422 33.8026 60.0826 34.099 58.9196 34.3852C58.4094 34.5108 58.3324 34.409 58.2091 33.4688C58.3223 33.4236 58.4388 33.3682 58.5598 33.3297C59.7726 32.9484 60.9854 32.5706 62.2592 32.1724C62.3384 32.6385 62.4074 33.0559 62.4798 33.4915Z" fill="#0B3727"/>
<path d="M56.1185 12.38C56.5925 11.7465 57.0258 11.1684 57.5032 10.5315C58.0915 10.9715 58.6402 11.3811 59.2454 11.8325C58.8144 12.4377 58.3981 13.0238 57.941 13.6663C57.3244 13.2319 56.7384 12.8179 56.1185 12.38Z" fill="#0B3727"/>
<path d="M19.6347 9.55175C20.4221 8.99741 21.1688 8.47361 21.9686 7.91022C22.2877 8.42836 22.5886 8.91595 22.8975 9.41712C22.187 9.94997 21.5025 10.4636 20.7853 11.0021C20.4086 10.5281 20.0398 10.0631 19.6347 9.55175Z" fill="#0B3727"/>
<path d="M57.9772 9.42278C58.2533 8.93519 58.518 8.46569 58.8314 7.91248C59.6436 8.46908 60.4231 9.00306 61.2444 9.56646C60.8485 10.0586 60.4797 10.5168 60.0916 11.001C59.3834 10.4715 58.699 9.96129 57.9772 9.42278Z" fill="#0B3727"/>
<path d="M17.1911 33.0627C16.1594 32.8444 15.1774 32.6373 14.166 32.4224C14.2678 31.9054 14.3594 31.4347 14.4726 30.8634C15.4964 31.187 16.4682 31.4924 17.4796 31.8115C17.3755 32.2629 17.2861 32.6509 17.1911 33.0627Z" fill="#0B3727"/>
<path d="M63.5942 33.0808C63.5003 32.626 63.4211 32.2459 63.3317 31.8137C64.3284 31.506 65.2912 31.2096 66.2449 30.9155C66.2844 30.9675 66.3172 30.9924 66.3286 31.0263C66.7913 32.393 66.7913 32.393 65.4224 32.6871C64.8364 32.8115 64.2515 32.9383 63.5942 33.0808Z" fill="#0B3727"/>
<path d="M27.6806 9.59474C28.0008 10.2317 28.2859 10.7973 28.5812 11.3833C27.9329 11.725 27.3254 12.0452 26.667 12.3925C26.3728 11.9094 26.0753 11.4218 25.7371 10.8652C26.3808 10.4455 26.9985 10.0405 27.6806 9.59474Z" fill="#0B3727"/>
<path d="M54.1726 12.4185C53.5402 12.0655 52.9417 11.7307 52.3172 11.3822C52.5944 10.7838 52.8535 10.2249 53.1397 9.60719C53.8004 10.0122 54.4317 10.4002 55.089 10.8041C54.7801 11.3494 54.5041 11.8347 54.1726 12.4185Z" fill="#0B3727"/>
<path d="M23.2798 23.3673C23.7539 23.7882 24.1838 24.1694 24.6318 24.5677C24.2844 25.0078 23.9665 25.4116 23.6272 25.8427C23.1316 25.5055 22.6576 25.1831 22.1259 24.8211C22.5105 24.3358 22.8782 23.8742 23.2798 23.3673Z" fill="#0B3727"/>
<path d="M56.192 24.5586C56.6264 24.1525 57.0213 23.7837 57.4828 23.3515C57.8731 23.8221 58.2476 24.2758 58.6639 24.7781C58.1718 25.1175 57.7023 25.4422 57.1921 25.794C56.8685 25.3924 56.554 25.0044 56.192 24.5586Z" fill="#0B3727"/>
<path d="M25.5741 25.3981C26.0753 25.8313 26.5233 26.2183 27.0007 26.6312C26.719 26.94 26.4701 27.2115 26.2065 27.5012C25.7235 27.1471 25.2574 26.8043 24.7336 26.4208C25.0096 26.0848 25.2642 25.7759 25.5741 25.3981Z" fill="#0B3727"/>
<path d="M42.7825 2.78876C43.2328 2.81252 43.6084 2.83175 44.079 2.85551C44.0406 3.4766 44.0032 4.08185 43.9625 4.72218C43.5303 4.68937 43.1627 4.66222 42.7825 4.63393C42.7825 4.01963 42.7825 3.42569 42.7825 2.78876Z" fill="#0B3727"/>
<path d="M55.2451 25.3845C55.5404 25.751 55.7836 26.0531 56.0732 26.414C55.5777 26.7749 55.1025 27.121 54.5969 27.4887C54.3468 27.2115 54.1138 26.9513 53.8479 26.6572C54.3163 26.2307 54.7541 25.8325 55.2451 25.3845Z" fill="#0B3727"/>
<path d="M38.0175 4.63959C37.6622 4.65995 37.3115 4.67919 36.885 4.70294C36.8386 4.10448 36.7934 3.51733 36.7425 2.87135C37.1916 2.87135 37.5785 2.87135 38.0175 2.87135C38.0175 3.42343 38.0175 4.01284 38.0175 4.63959Z" fill="#0B3727"/>
<path d="M21.8261 22.2304C22.032 22.46 22.1881 22.6343 22.3431 22.8073C21.9947 23.2893 21.67 23.7395 21.3091 24.2396C21.0783 24.0812 20.8419 23.9194 20.5421 23.7147C20.9765 23.2135 21.3826 22.744 21.8261 22.2304Z" fill="#0B3727"/>
<path d="M58.5101 22.813C58.6718 22.6309 58.8065 22.4815 58.9875 22.2779C59.44 22.7168 59.8631 23.1264 60.3428 23.5913C60.0306 23.8459 59.7964 24.036 59.5475 24.2396C59.1968 23.7577 58.8698 23.3085 58.5101 22.813Z" fill="#0B3727"/>
<path d="M42.7045 6.4248C43.0676 6.4463 43.3969 6.46666 43.777 6.48929C43.7442 6.9305 43.7147 7.33325 43.6842 7.75749C43.3437 7.75749 43.0348 7.75749 42.7045 7.75749C42.7045 7.30044 42.7045 6.88072 42.7045 6.4248Z" fill="#0B3727"/>
<path d="M38.1453 7.76088C37.8048 7.76088 37.4948 7.76088 37.1554 7.76088C37.1169 7.35361 37.0819 6.96896 37.0389 6.5187C37.4077 6.48137 37.7527 6.44743 38.1453 6.40783C38.1453 6.85357 38.1453 7.27555 38.1453 7.76088Z" fill="#0B3727"/>
<path d="M67.5572 38.3697C67.2155 38.967 66.9327 39.4625 66.6352 39.9818C66.358 39.4625 66.1046 38.9874 65.8161 38.4466C66.3738 38.4217 66.9033 38.3991 67.5572 38.3697Z" fill="white"/>
<path d="M65.8116 40.2352C65.4235 39.9004 65.1316 39.6153 64.8058 39.3766C64.4936 39.148 64.1463 38.9659 63.8227 38.769C64.704 38.2124 65.5072 38.7543 65.8116 40.2352Z" fill="white"/>
<path d="M67.8321 39.3087C68.2835 39.1175 68.7156 38.9342 69.1614 38.7453C68.4962 38.407 68.271 38.5021 67.8321 39.3087Z" fill="white"/>
<path d="M13.4408 38.4036C14.0789 38.4036 14.597 38.4036 15.1932 38.4036C14.9228 38.9387 14.6705 39.4365 14.3877 39.9977C14.0709 39.4648 13.7836 38.9806 13.4408 38.4036Z" fill="white"/>
<path d="M15.2453 40.1436C15.8697 39.6831 16.5112 39.2103 17.1719 38.7227C16.1469 38.2916 15.2102 38.9727 15.2453 40.1436Z" fill="white"/>
<path d="M13.1523 39.2759C12.667 39.0722 12.2382 38.8912 11.7608 38.6899C12.641 38.4647 12.7688 38.519 13.1523 39.2759Z" fill="white"/>
<path d="M123.842 13.404H131.642C134.173 13.404 136.079 13.8373 137.362 14.704C138.679 15.5707 139.338 17.0787 139.338 19.228V48.036C139.338 49.2493 139.147 50.0467 138.766 50.428C138.419 50.8093 137.657 51 136.478 51H131.018V19.852C131.018 19.2973 130.931 18.916 130.758 18.708C130.619 18.4653 130.238 18.344 129.614 18.344H123.842V13.404ZM104.966 51H99.5061C98.3274 51 97.5474 50.8093 97.1661 50.428C96.8194 50.0467 96.6461 49.2493 96.6461 48.036V15.484C96.6461 14.86 96.8194 14.3573 97.1661 13.976C97.5128 13.5947 97.9634 13.404 98.5181 13.404H104.966V51ZM107.098 13.404H120.41C120.965 13.404 121.415 13.5947 121.762 13.976C122.109 14.3573 122.282 14.86 122.282 15.484V47.204H116.874C115.834 47.204 115.089 46.9267 114.638 46.372C114.187 45.7827 113.962 44.8467 113.962 43.564V19.852C113.962 19.2973 113.875 18.916 113.702 18.708C113.563 18.4653 113.182 18.344 112.558 18.344H107.098V13.404ZM155.246 25H160.29C161.607 25 162.682 25.0693 163.514 25.208C164.346 25.312 165.074 25.572 165.698 25.988C166.322 26.404 166.79 26.872 167.102 27.392C167.414 27.8773 167.656 28.6747 167.83 29.784C168.107 31.344 168.246 33.528 168.246 36.336C168.246 39.144 168.228 41.0507 168.194 42.056C168.159 43.0267 168.09 44.0667 167.986 45.176C167.916 46.2853 167.76 47.1 167.518 47.62C167.31 48.14 167.015 48.6773 166.634 49.232C166.287 49.752 165.819 50.116 165.23 50.324C163.947 50.7747 162.3 51 160.29 51H160.186V31.396C160.186 31.3267 160.186 31.1187 160.186 30.772C160.186 30.4253 160.168 30.1307 160.134 29.888C159.96 29.2293 159.267 28.9 158.054 28.9H155.246V25ZM153.686 25V44.604C153.686 44.6733 153.686 44.8813 153.686 45.228C153.686 45.5747 153.72 45.8693 153.79 46.112C153.928 46.7707 154.604 47.1 155.818 47.1H158.626V51H153.582C152.264 51 151.19 50.948 150.358 50.844C149.526 50.7053 148.798 50.428 148.174 50.012C147.55 49.596 147.082 49.1453 146.77 48.66C146.458 48.14 146.198 47.3253 145.99 46.216C145.747 44.656 145.626 42.472 145.626 39.664C145.626 36.856 145.643 34.9667 145.678 33.996C145.712 32.9907 145.764 31.9333 145.834 30.824C145.938 29.7147 146.094 28.9 146.302 28.38C146.544 27.86 146.839 27.34 147.186 26.82C147.567 26.2653 148.052 25.884 148.642 25.676C149.924 25.2253 151.571 25 153.582 25H153.686ZM181.043 25V34.516C181.043 35.1053 181.13 35.5213 181.303 35.764C181.477 35.972 181.927 36.076 182.655 36.076H185.567V39.976H178.911C175.133 39.976 173.243 38.1213 173.243 34.412V30.772C173.243 28.484 173.815 26.9587 174.959 26.196C176.138 25.3987 178.166 25 181.043 25ZM181.147 42.784V45.54C181.147 46.1293 181.234 46.5453 181.407 46.788C181.581 46.996 182.031 47.1 182.759 47.1H185.567V51H179.015C175.237 51 173.347 49.1453 173.347 45.436V43.876C173.347 43.356 173.399 43.0613 173.503 42.992C173.642 42.9227 173.729 42.888 173.763 42.888C173.798 42.8533 173.885 42.836 174.023 42.836C174.197 42.8013 174.301 42.784 174.335 42.784C176.623 42.784 178.894 42.784 181.147 42.784ZM187.127 36.076H189.259C193.038 36.076 194.927 37.9307 194.927 41.64V45.228C194.927 47.516 194.338 49.0587 193.159 49.856C192.015 50.6187 190.005 51 187.127 51V36.076ZM182.603 25H189.155C192.934 25 194.823 26.8547 194.823 30.564V33.268C192.501 33.268 190.733 33.268 189.519 33.268C188.306 33.268 187.682 33.268 187.647 33.268C187.613 33.2333 187.543 33.216 187.439 33.216C187.37 33.1813 187.318 33.1467 187.283 33.112C187.249 33.0773 187.214 33.0427 187.179 33.008C187.145 32.9387 187.127 32.8693 187.127 32.8C187.058 32.5227 187.023 32.3147 187.023 32.176V30.46C187.023 29.8707 186.937 29.472 186.763 29.264C186.59 29.0213 186.139 28.9 185.411 28.9H182.603V25ZM212.911 28.9H210.103C209.028 28.9 208.421 29.0907 208.283 29.472C208.075 29.9227 207.971 30.564 207.971 31.396V44.604C207.971 44.6733 207.971 44.8813 207.971 45.228C207.971 45.5747 208.005 45.8693 208.075 46.112C208.213 46.7707 208.889 47.1 210.103 47.1H212.911V51H207.867C206.549 51 205.475 50.948 204.643 50.844C203.811 50.7053 203.083 50.428 202.459 50.012C201.835 49.596 201.367 49.1453 201.055 48.66C200.743 48.14 200.483 47.3253 200.275 46.216C200.032 44.656 199.911 42.472 199.911 39.664C199.911 36.856 199.928 34.9667 199.963 33.996C199.997 32.9907 200.049 31.9333 200.119 30.824C200.223 29.7147 200.379 28.9 200.587 28.38C200.829 27.86 201.124 27.34 201.471 26.82C201.852 26.2653 202.337 25.884 202.927 25.676C204.209 25.2253 205.856 25 207.867 25H212.911V28.9ZM224.611 50.636C224.611 50.8787 224.541 51 224.403 51H220.139C218.197 51 216.759 50.5493 215.823 49.648C214.921 48.7467 214.471 47.2733 214.471 45.228V25H216.603C218.787 25 220.277 25.52 221.075 26.56C221.872 27.5653 222.271 28.9 222.271 30.564V45.124C222.271 46.1987 222.496 46.8053 222.947 46.944C223.189 47.048 223.519 47.1 223.935 47.1H224.195C224.472 47.1 224.611 47.2213 224.611 47.464V50.636ZM228.712 25.052H231.884C233.41 25.052 234.554 25.4333 235.316 26.196C236.114 26.924 236.512 27.8773 236.512 29.056V51H230.584C230.03 51 229.579 50.8093 229.232 50.428C228.886 50.0467 228.712 49.544 228.712 48.92V25.052ZM229.076 13.976C229.458 13.5947 230.567 13.404 232.404 13.404C234.242 13.404 235.351 13.5947 235.732 13.976C236.114 14.3227 236.304 15.3627 236.304 17.096C236.304 18.8293 236.096 19.8867 235.68 20.268C235.299 20.6493 234.207 20.84 232.404 20.84C230.602 20.84 229.492 20.6493 229.076 20.268C228.695 19.8867 228.504 18.8293 228.504 17.096C228.504 15.3627 228.695 14.3227 229.076 13.976ZM250.17 51H250.066C246.634 51 244.519 50.4107 243.722 49.232C243.341 48.6773 243.029 48.14 242.786 47.62C242.578 47.1 242.439 46.2853 242.37 45.176C242.197 43.1653 242.11 40.9293 242.11 38.468C242.11 36.0067 242.127 34.2387 242.162 33.164C242.197 32.0547 242.301 30.9453 242.474 29.836C242.682 28.692 242.942 27.8773 243.254 27.392C243.566 26.872 244.034 26.404 244.658 25.988C245.282 25.572 246.01 25.312 246.842 25.208C247.674 25.0693 248.749 25 250.066 25H250.17V51ZM256.202 42.784C258.525 42.784 260.293 42.784 261.506 42.784C262.719 42.784 263.343 42.8013 263.378 42.836C263.413 42.836 263.465 42.8533 263.534 42.888C263.638 42.888 263.707 42.9053 263.742 42.94C263.777 42.9747 263.811 43.0267 263.846 43.096C263.881 43.1307 263.898 43.2 263.898 43.304C263.967 43.5467 264.002 43.7373 264.002 43.876V45.436C264.002 49.1453 262.113 51 258.334 51H251.782V47.1H254.59C255.318 47.1 255.769 46.996 255.942 46.788C256.115 46.5453 256.202 46.1293 256.202 45.54V42.784ZM251.782 25H258.334C262.113 25 264.002 26.8547 264.002 30.564V34.1C261.679 34.1 259.911 34.1 258.698 34.1C257.485 34.1 256.861 34.1 256.826 34.1C256.791 34.0653 256.722 34.048 256.618 34.048C256.549 34.0133 256.497 33.9787 256.462 33.944C256.427 33.9093 256.393 33.8747 256.358 33.84C256.323 33.7707 256.306 33.7013 256.306 33.632C256.237 33.3547 256.202 33.1467 256.202 33.008V30.46C256.202 29.8707 256.115 29.472 255.942 29.264C255.769 29.0213 255.318 28.9 254.59 28.9H251.782V25Z" fill="#0B3727"/>
</svg>
